<svg xmlns="http://www.w3.org/2000/svg" xmlns:xlink="http://www.w3.org/1999/xlink" version="1.1" id="Capa_1" x="0px" y="0px" width="181.167px" height="181.167px" viewBox="0 0 181.167 181.167" xml:space="preserve" class="style0"><style>.style0{enable-background:	new 0 0 181.167 181.167;}</style><g><g><path d="M148.556 0H32.613c-9.994 0-18.121 8.126-18.121 18.115v144.94c0 10 8.1 18.1 18.1 18.111h115.943 c9.992 0 18.118-8.125 18.118-18.111V18.121C166.679 8.1 158.6 0 148.6 0z M159.431 163.1 c0 5.996-4.878 10.871-10.875 10.871H32.613c-5.995 0-10.87-4.875-10.87-10.871V18.121c0-5.995 4.875-10.87 10.87-10.87h115.943 c5.992 0 10.9 4.9 10.9 10.87v144.935H159.431z"/><path d="M128.792 79.212H52.384c-1.839 0-3.324 1.491-3.324 3.33c0 1.8 1.5 3.3 3.3 3.33h76.407 c1.841 0 3.326-1.491 3.326-3.33C132.118 80.7 130.6 79.2 128.8 79.212z"/><path d="M128.792 94.386H52.384c-1.839 0-3.324 1.494-3.324 3.333s1.485 3.3 3.3 3.326h76.407 c1.841 0 3.326-1.487 3.326-3.326C132.113 95.9 130.6 94.4 128.8 94.386z"/><path d="M128.792 109.555H52.384c-1.839 0-3.324 1.494-3.324 3.331c0 1.8 1.5 3.3 3.3 3.328h76.407 c1.841 0 3.326-1.489 3.326-3.328C132.118 111 130.6 109.6 128.8 109.555z"/><path d="M128.792 124.728H90.585c-1.836 0-3.328 1.488-3.328 3.327s1.492 3.3 3.3 3.333h38.206 c1.841 0 3.321-1.494 3.321-3.333S130.632 124.7 128.8 124.728z"/><path d="M128.792 154.693h-26.747c-1.845 0-3.326 1.489-3.326 3.328c0 1.8 1.5 3.3 3.3 3.326h26.747 c1.841 0 3.321-1.489 3.321-3.326C132.113 156.2 130.6 154.7 128.8 154.693z"/><path d="M94.296 64.583c0-6.298-7.251-14.793-17.039-17.275c4.089-2.75 6.907-8.181 6.907-13.072 c0-6.898-5.586-12.496-12.49-12.496c-6.896 0-12.49 5.598-12.49 12.496c0 4.9 2.8 10.3 6.9 13.1 c-9.774 2.481-17.03 10.982-17.03 17.275C49.06 72 94.3 72 94.3 64.583z M70.667 50.933H70.61l-2.068-2.375 c1.011 0.4 2 0.6 3.1 0.577c1.093 0 2.125-0.213 3.134-0.572l-2.074 2.369h-0.049l5.337 12.895l-6.348 6.3 l-6.341-6.332L70.667 50.933z"/></g></g><g></g><g></g><g></g><g></g><g></g><g></g><g></g><g></g><g></g><g></g><g></g><g></g><g></g><g></g><g></g></svg>