<svg xmlns="http://www.w3.org/2000/svg" xmlns:xlink="http://www.w3.org/1999/xlink" version="1.1" id="Capa_1" x="0px" y="0px" width="89.115px" height="89.115px" viewBox="0 0 89.115 89.115" xml:space="preserve" class="style0"><style>.style0{enable-background:	new 0 0 89.115 89.115;}</style><g><g><path d="M58.043 77.543c-6.283-0.106-9.507-3.158-11.146-8.422c-1.377-4.436-2.039-9.1-3.06-13.651 c-0.855-3.836 0.187-6.125 4.188-7.771c6.735-2.755 12.013-7.493 16.02-14.392c-6.656 4.334-20.807 14.994-21.031 12.2 c0-9.575 5.412-20.757 8.328-30.084c-15.437 21.158-19.244 35.248-8.069 59.922c-2.555-0.63-3.735 0.489-4.387-0.071 c-6.104-5.394-12.359 1.078-18.635 5.537c-0.789 0.561-0.539 4.322-0.251 4.394c6.16 1.4 12.3 3.1 18.6 3.6 c6.548 0.5 13.2 0.4 19.782-0.295c5.434-0.599 10.721-2.494 16.874-4.004C70.14 77.2 63.7 77.6 58 77.543z"/><path d="M73.895 8.342C67.646 2.6 58.5 0.6 50.4 3.41C46.777 1.2 42.6 0 38.3 0C26.62 0 16.7 8.8 15.2 20.3 C8.392 23.5 4.1 30.3 4.1 37.818c0 10.7 8.7 19.5 19.5 19.496c4.437 0 8.781-1.536 12.236-4.325 c0.828-0.664 0.956-1.886 0.287-2.711c-0.662-0.828-1.88-0.954-2.708-0.287c-2.806 2.266-6.203 3.463-9.815 3.5 c-8.624 0-15.639-7.015-15.639-15.636c0-6.367 3.826-12.047 9.738-14.462c0.669-0.277 1.127-0.903 1.191-1.629 c0.828-10.019 9.356-17.872 19.411-17.872c3.879 0 7.6 1.1 10.8 3.297c0.521 0.4 1.2 0.4 1.8 0.2 c7.008-2.755 15.063-1.163 20.5 3.946c0.092 0.1 0.2 0.2 0.3 0.242c5.917 3.6 9.4 9.8 9.4 16.7 c0 10.747-8.747 19.494-19.496 19.494c-2.053 0-4.072-0.318-6.009-0.951c-1.021-0.328-2.108 0.223-2.438 1.2 c-0.324 1 0.2 2.1 1.2 2.43c2.319 0.8 4.7 1.1 7.2 1.144c12.874 0 23.343-10.474 23.343-23.351 C85.02 20 80.9 12.6 73.9 8.342z"/></g></g><g></g><g></g><g></g><g></g><g></g><g></g><g></g><g></g><g></g><g></g><g></g><g></g><g></g><g></g><g></g></svg>