<?xml version="1.0" encoding="UTF-8"?>
<!DOCTYPE svg PUBLIC "-//W3C//DTD SVG 1.1//EN" "http://www.w3.org/Graphics/SVG/1.1/DTD/svg11.dtd">
<!-- Creator: CorelDRAW X6 -->
<svg xmlns="http://www.w3.org/2000/svg" xml:space="preserve" width="86.6986mm" height="43.3492mm" version="1.1" style="shape-rendering:geometricPrecision; text-rendering:geometricPrecision; image-rendering:optimizeQuality; fill-rule:evenodd; clip-rule:evenodd"
viewBox="0 0 8670 4335"
 xmlns:xlink="http://www.w3.org/1999/xlink">
 <defs>
  <style type="text/css">
   <![CDATA[
    .str0 {stroke:#FFCC01;stroke-width:75}
    .fil0 {fill:none}
   ]]>
  </style>
 </defs>
 <g id="Layer_x0020_1">
  <metadata id="CorelCorpID_0Corel-Layer"/>
  <path class="fil0 str0" d="M1547 646c-67,6 -121,-33 -205,-23 -55,32 -354,556 -531,834 -106,41 -181,117 -244,198 -58,78 -65,131 -100,215 -42,168 -50,253 -64,378 -63,161 -213,292 -241,409 -46,182 -3,366 17,426 31,104 152,264 207,274 46,5 91,1 135,-12 -5,-115 -4,-216 40,-363 38,-130 95,-225 212,-345 200,-124 322,-177 532,-180 202,22 335,73 465,180 121,132 198,256 225,409 14,108 -11,299 10,322 1469,-10 3037,-20 4506,-30 -19,-103 -8,-236 28,-352 63,-162 68,-236 173,-356 115,-98 283,-157 382,-184 219,-17 276,-8 475,69 151,66 281,198 321,312 58,128 63,384 44,521 73,150 18,171 114,142 134,-4 315,-93 405,-152 49,-193 59,-379 13,-589 -44,-146 -99,-271 -208,-390 -59,-125 -81,-228 -207,-340 -59,-55 -125,-92 -229,-122 -435,-93 -870,-187 -1305,-281 -110,-19 -231,-34 -321,-122 -298,-243 -595,-485 -893,-727 -63,-20 -106,-34 -166,-43 -45,-6 -82,-38 -124,-53 -152,-49 -310,-49 -495,-60l-991 -27c-347,1 -694,3 -1041,4 -247,-4 -469,17 -704,26 -84,3 -154,20 -235,32zm5694 1949c320,0 580,268 580,598 0,330 -260,598 -580,598 -321,0 -580,-268 -580,-598 0,-330 259,-598 580,-598zm-5979 44c321,0 581,268 581,598 0,330 -260,598 -581,598 -320,0 -580,-268 -580,-598 0,-330 260,-598 580,-598z"/>
 </g>
</svg>
