<?xml version="1.0" encoding="UTF-8"?>
<!DOCTYPE svg PUBLIC "-//W3C//DTD SVG 1.1//EN" "http://www.w3.org/Graphics/SVG/1.1/DTD/svg11.dtd">
<!-- Creator: CorelDRAW X6 -->
<svg xmlns="http://www.w3.org/2000/svg" xml:space="preserve" width="10.16mm" height="10.16mm" version="1.1" style="shape-rendering:geometricPrecision; text-rendering:geometricPrecision; image-rendering:optimizeQuality; fill-rule:evenodd; clip-rule:evenodd"
viewBox="0 0 1016 1016"
 xmlns:xlink="http://www.w3.org/1999/xlink"
 xmlns:dc="http://purl.org/dc/elements/1.1/"
 xmlns:cc="http://creativecommons.org/ns#"
 xmlns:rdf="http://www.w3.org/1999/02/22-rdf-syntax-ns#"
 xmlns:svg="http://www.w3.org/2000/svg"
 xmlns:sodipodi="http://sodipodi.sourceforge.net/DTD/sodipodi-0.dtd"
 xmlns:inkscape="http://www.inkscape.org/namespaces/inkscape"
 inkscape:version="0.48.4 r9939">
 <defs>
  <style type="text/css">
   <![CDATA[
    .fil0 {fill:#FFCC01}
   ]]>
  </style>
 </defs>
 <g id="Layer_x0020_1">
  <metadata id="CorelCorpID_0Corel-Layer"/>
  <script xlink:href="" id="script3301"/>
  <script xlink:href="" id="script3299"/>
  <g id="g3316">
   <path id="path3318" class="fil0" d="M343 811l-4 -5c-19,-19 -19,-50 0,-72 23,-23 57,-57 91,-93l8 -8 -14 -2c-26,-7 -53,-15 -75,-30 -19,-13 -36,-25 -44,-38 -11,-17 -11,-32 -2,-53 13,-25 46,-42 87,-11 38,32 104,32 106,32 0,0 65,0 103,-32 41,-31 75,-14 87,11 9,21 9,36 0,53 -10,13 -27,25 -46,38 -22,15 -49,23 -74,30l-13 2 6 8 91 93c19,22 19,53 0,72l-4 5c-19,19 -49,19 -68,0 -19,-19 -42,-43 -68,-68l-14 -17 -83 85c-11,10 -21,14 -34,14 -13,0 -25,-4 -36,-14zm51 -19l91 -96c6,-4 15,-4 19,0 36,36 70,72 93,96 9,10 21,10 32,0l4 -5c9,-8 9,-23 0,-34l-93 -95 -25 -25c-7,-9 -2,-21 8,-24 30,-2 72,-10 104,-29 19,-15 30,-23 36,-32 4,-6 6,-13 0,-25 -6,-11 -21,-24 -47,-2 -46,38 -122,38 -120,38 0,0 -77,0 -123,-38 -26,-22 -40,-9 -47,2 -4,12 -4,19 0,25 7,9 17,17 38,32 30,19 74,27 102,32 11,0 17,12 8,21l-25 25c-34,36 -68,72 -91,95 -9,11 -9,26 0,34l4 5c4,4 11,6 17,6 4,0 11,-2 15,-6z" inkscape:connector-curvature="0"/>
   <path id="path3320" class="fil0" d="M324 336c0,-95 76,-171 172,-171 93,0 171,76 171,171 0,96 -78,172 -171,172 -96,0 -172,-76 -172,-172zm316 0c0,-80 -64,-146 -144,-146 -81,0 -147,66 -147,146 0,81 66,146 147,146 80,0 144,-65 144,-146zm-235 0c0,-51 40,-91 91,-91 48,0 91,40 91,91 0,51 -43,91 -91,91 -51,0 -91,-40 -91,-91zm154 0c0,-36 -27,-65 -63,-65 -36,0 -66,29 -66,65 0,36 30,64 66,64 36,0 63,-28 63,-64z" inkscape:connector-curvature="0"/>
   <path id="path3322" class="fil0" d="M85 853l0 -690c0,-43 34,-79 78,-79l691 0c42,0 78,36 78,79l0 690c0,44 -36,78 -78,78l-691 0c-44,0 -78,-34 -78,-78zm819 0l0 -690c0,-30 -23,-51 -50,-51l-691 0c-30,0 -53,21 -53,51l0 690c0,30 23,53 53,53l691 0c27,0 50,-23 50,-53z" inkscape:connector-curvature="0"/>
  </g>
 </g>
</svg>
