<svg xmlns="http://www.w3.org/2000/svg" xmlns:xlink="http://www.w3.org/1999/xlink" version="1.1" id="Capa_1" x="0px" y="0px" width="61.302px" height="61.302px" viewBox="0 0 61.302 61.302" xml:space="preserve" class="style0"><style>.style0{enable-background:	new 0 0 61.302 61.302; fill:	#FFCC01;}</style><g><g><path d="M14.329 37.455c-0.144 0-0.256 0.04-0.335 0.121c-0.079 0.084-0.129 0.193-0.15 0.333h0.968 c-0.011-0.149-0.061-0.263-0.15-0.339C14.573 37.5 14.5 37.5 14.3 37.455z"/><path d="M5.665 32.708c0.207 0 0.342-0.107 0.406-0.323c0.064-0.216 0.096-0.527 0.096-0.935c0-0.426-0.032-0.742-0.096-0.947 c-0.064-0.205-0.2-0.308-0.406-0.308c-0.206 0-0.344 0.104-0.411 0.308c-0.066 0.205-0.1 0.521-0.1 0.9 c0 0.4 0 0.7 0.1 0.935C5.321 32.6 5.5 32.7 5.7 32.708z"/><path d="M22.074 38.245l-0.128 0.023c-0.12 0.021-0.206 0.047-0.258 0.077c-0.089 0.051-0.132 0.13-0.132 0.2 c0 0.1 0 0.2 0.1 0.209c0.055 0 0.1 0.1 0.2 0.064c0.123 0 0.235-0.035 0.339-0.106 c0.104-0.07 0.157-0.2 0.162-0.389v-0.209c-0.035 0.021-0.072 0.04-0.109 0.054C22.188 38.2 22.1 38.2 22.1 38.245z"/><path d="M22.346 30.196c-0.207 0-0.344 0.104-0.411 0.308c-0.066 0.205-0.1 0.521-0.1 0.947c0 0.4 0 0.7 0.1 0.9 s0.204 0.3 0.4 0.323c0.206 0 0.341-0.107 0.406-0.323c0.063-0.216 0.096-0.527 0.096-0.935c0-0.426-0.033-0.742-0.096-0.947 C22.688 30.3 22.6 30.2 22.3 30.196z"/><path d="M19.566 30.196c-0.207 0-0.344 0.104-0.411 0.308c-0.066 0.205-0.1 0.521-0.1 0.947c0 0.4 0 0.7 0.1 0.9 c0.067 0.2 0.2 0.3 0.4 0.323c0.206 0 0.341-0.107 0.406-0.323c0.063-0.216 0.096-0.527 0.096-0.935 c0-0.426-0.033-0.742-0.096-0.947C19.907 30.3 19.8 30.2 19.6 30.196z"/><path d="M8.445 30.196c-0.206 0-0.344 0.104-0.411 0.308c-0.066 0.205-0.1 0.521-0.1 0.947c0 0.4 0 0.7 0.1 0.9 c0.067 0.2 0.2 0.3 0.4 0.323c0.207 0 0.342-0.107 0.406-0.323c0.063-0.216 0.096-0.527 0.096-0.935 c0-0.426-0.032-0.742-0.096-0.947C8.787 30.3 8.7 30.2 8.4 30.196z"/><path d="M14.006 32.708c0.207 0 0.342-0.107 0.407-0.323c0.063-0.216 0.096-0.527 0.096-0.935c0-0.426-0.033-0.742-0.096-0.947 c-0.065-0.205-0.2-0.308-0.407-0.308c-0.206 0-0.343 0.104-0.41 0.308c-0.067 0.205-0.1 0.521-0.1 0.9 c0 0.4 0 0.7 0.1 0.935C13.663 32.6 13.8 32.7 14 32.708z"/><path d="M33.543 36.906v-3.558v-0.6l0.521-0.302l3.081-1.779l1.779-3.081l0.302-0.521h0.6h3.559l3.08-1.779l0.521-0.301 l0.521 0.301l3.082 1.779h3.557h0.602l0.302 0.521l1.232 2.138l0.546 0.942l0.496 0.287l1.042 0.602v-21.13 c0-2.177-1.748-3.948-3.896-3.948H3.898C1.749 6.5 0 8.2 0 10.425v29.41c0 2.2 1.7 3.9 3.9 3.949h29.456l-0.602-1.042 L32.151 41.7l-0.388-0.671l-0.301-0.521l0.301-0.521L33.543 36.906z M27.597 38.733c0.085 0.1 0.2 0.1 0.3 0.1 c0.128 0 0.232-0.032 0.312-0.1c0.043-0.034 0.082-0.083 0.116-0.146h0.574c-0.015 0.126-0.084 0.257-0.208 0.4 c-0.192 0.208-0.462 0.313-0.808 0.313c-0.285 0-0.539-0.09-0.757-0.265c-0.219-0.177-0.328-0.464-0.328-0.86 c0-0.373 0.099-0.657 0.296-0.856c0.198-0.2 0.453-0.299 0.769-0.299c0.188 0 0.4 0 0.5 0.1 c0.149 0.1 0.3 0.2 0.4 0.317c0.088 0.1 0.1 0.3 0.2 0.445c0.015 0.1 0 0.2 0 0.425h-1.566 C27.38 38.5 27.5 38.6 27.6 38.733z M28.855 32.802c-0.182 0.315-0.497 0.472-0.948 0.472s-0.767-0.156-0.949-0.472 c-0.181-0.315-0.272-0.766-0.272-1.351c0-0.584 0.091-1.036 0.272-1.352c0.183-0.318 0.498-0.477 0.949-0.477 c0.45 0 0.8 0.2 0.9 0.477c0.181 0.3 0.3 0.8 0.3 1.352C29.128 32 29 32.5 28.9 32.802z M25.84 37.6 c-0.05-0.101-0.142-0.151-0.276-0.151c-0.155 0-0.262 0.065-0.322 0.193c-0.03 0.069-0.046 0.149-0.046 0.246v1.28H24.63v-1.28 c0-0.126-0.014-0.22-0.04-0.277c-0.047-0.104-0.14-0.155-0.278-0.155c-0.16 0-0.268 0.051-0.323 0.2 c-0.03 0.061-0.044 0.147-0.044 0.265v1.294h-0.57v-2.146h0.546v0.313c0.069-0.112 0.136-0.191 0.197-0.239 c0.109-0.084 0.25-0.125 0.424-0.125c0.165 0 0.3 0 0.4 0.107c0.082 0.1 0.1 0.2 0.2 0.3 c0.074-0.126 0.165-0.22 0.274-0.279c0.116-0.059 0.244-0.087 0.386-0.087c0.095 0 0.2 0 0.3 0.1 c0.092 0 0.2 0.1 0.2 0.193c0.06 0.1 0.1 0.2 0.1 0.276c0.014 0.1 0 0.2 0 0.317l-0.004 1.354h-0.576 v-1.368C25.879 37.7 25.9 37.7 25.8 37.628z M22.244 37.497c-0.062-0.032-0.153-0.049-0.273-0.049 c-0.134 0-0.23 0.033-0.286 0.099c-0.04 0.049-0.066 0.115-0.08 0.196h-0.543c0.011-0.187 0.065-0.342 0.158-0.464 c0.149-0.187 0.406-0.282 0.769-0.282c0.237 0 0.4 0 0.6 0.14c0.184 0.1 0.3 0.3 0.3 0.527v0.986 c0 0.1 0 0.2 0 0.25c0.004 0.1 0 0.1 0 0.149c0.019 0 0 0 0.1 0.065v0.083h-0.612 c-0.016-0.044-0.028-0.085-0.035-0.122c-0.006-0.039-0.012-0.081-0.016-0.13c-0.078 0.084-0.168 0.156-0.27 0.2 c-0.122 0.07-0.259 0.105-0.413 0.105c-0.196 0-0.357-0.057-0.486-0.167c-0.127-0.112-0.191-0.269-0.191-0.472 c0-0.265 0.102-0.456 0.308-0.574c0.112-0.065 0.278-0.111 0.497-0.139l0.192-0.024c0.104-0.012 0.18-0.028 0.226-0.049 c0.08-0.033 0.121-0.087 0.121-0.158C22.336 37.6 22.3 37.5 22.2 37.497z M22.346 33.3 c-0.451 0-0.767-0.157-0.949-0.474c-0.181-0.315-0.273-0.765-0.273-1.35c0-0.584 0.091-1.035 0.273-1.352 c0.182-0.318 0.498-0.476 0.949-0.476c0.449 0 0.8 0.2 0.9 0.476c0.182 0.3 0.3 0.8 0.3 1.4 c0 0.585-0.091 1.034-0.273 1.35C23.112 33.1 22.8 33.3 22.3 33.275z M23.905 31.451c0-0.584 0.091-1.036 0.273-1.352 c0.183-0.318 0.498-0.477 0.949-0.477c0.45 0 0.8 0.2 0.9 0.477c0.181 0.3 0.3 0.8 0.3 1.4 c0 0.585-0.09 1.035-0.272 1.351c-0.182 0.315-0.497 0.472-0.948 0.472s-0.766-0.156-0.949-0.472 C23.996 32.5 23.9 32 23.9 31.451z M20.513 32.802c-0.181 0.315-0.497 0.472-0.947 0.5 c-0.451 0-0.767-0.156-0.949-0.472c-0.183-0.315-0.273-0.766-0.273-1.351c0-0.584 0.09-1.036 0.273-1.352 c0.181-0.318 0.497-0.477 0.949-0.477c0.45 0 0.8 0.2 0.9 0.477c0.183 0.3 0.3 0.8 0.3 1.4 C20.786 32 20.7 32.5 20.5 32.802z M20.615 36.291v2.906h-0.607l-1.184-2.062v2.062h-0.565v-2.906h0.637l1.154 2 v-2.026H20.615z M14.055 38.733c0.085 0.1 0.2 0.1 0.3 0.08c0.128 0 0.232-0.032 0.311-0.1 c0.044-0.034 0.083-0.083 0.116-0.146h0.574c-0.015 0.126-0.084 0.257-0.208 0.389c-0.192 0.208-0.462 0.313-0.808 0.3 c-0.286 0-0.539-0.09-0.757-0.265c-0.219-0.177-0.328-0.464-0.328-0.86c0-0.373 0.099-0.657 0.296-0.856 c0.198-0.2 0.453-0.299 0.769-0.299c0.188 0 0.4 0 0.5 0.102c0.15 0.1 0.3 0.2 0.4 0.3 c0.088 0.1 0.1 0.3 0.2 0.445c0.015 0.1 0 0.2 0 0.425H13.83C13.839 38.5 13.9 38.6 14.1 38.733z M12.298 37.628c-0.05-0.101-0.142-0.151-0.276-0.151c-0.155 0-0.263 0.065-0.322 0.193c-0.03 0.069-0.045 0.149-0.045 0.246v1.28 h-0.566v-1.28c0-0.126-0.014-0.22-0.04-0.277c-0.048-0.104-0.14-0.155-0.278-0.155c-0.16 0-0.268 0.051-0.323 0.2 c-0.03 0.061-0.045 0.147-0.045 0.265v1.294H9.833v-2.146h0.545v0.313c0.07-0.112 0.136-0.191 0.197-0.239 c0.109-0.084 0.25-0.125 0.424-0.125c0.165 0 0.3 0 0.4 0.107c0.081 0.1 0.1 0.2 0.2 0.3 c0.074-0.126 0.164-0.22 0.273-0.279c0.116-0.059 0.244-0.087 0.387-0.087c0.095 0 0.2 0 0.3 0.1 c0.092 0 0.2 0.1 0.2 0.193c0.06 0.1 0.1 0.2 0.1 0.276c0.014 0.1 0 0.2 0 0.317l-0.004 1.354h-0.576 v-1.368C12.338 37.7 12.3 37.7 12.3 37.628z M8.702 37.497c-0.062-0.032-0.153-0.049-0.273-0.049 c-0.134 0-0.229 0.033-0.285 0.099c-0.04 0.049-0.066 0.115-0.08 0.196H7.521c0.011-0.187 0.064-0.342 0.158-0.464 c0.149-0.187 0.405-0.282 0.769-0.282c0.236 0 0.4 0 0.6 0.14c0.184 0.1 0.3 0.3 0.3 0.527v0.986 c0 0.1 0 0.2 0 0.25c0.004 0.1 0 0.1 0 0.149c0.019 0 0 0 0.1 0.065v0.083H8.861 c-0.016-0.044-0.028-0.085-0.035-0.122c-0.007-0.039-0.012-0.081-0.016-0.13c-0.079 0.084-0.168 0.156-0.27 0.2 c-0.122 0.07-0.26 0.105-0.413 0.105c-0.196 0-0.357-0.057-0.486-0.167c-0.127-0.112-0.192-0.269-0.192-0.472 c0-0.265 0.103-0.456 0.308-0.574c0.112-0.065 0.277-0.111 0.496-0.139l0.193-0.024c0.104-0.012 0.18-0.028 0.225-0.049 c0.08-0.033 0.121-0.087 0.121-0.158C8.794 37.6 8.8 37.5 8.7 37.497z M9.393 32.8 c-0.181 0.315-0.498 0.472-0.948 0.472c-0.451 0-0.767-0.156-0.949-0.472c-0.181-0.315-0.272-0.766-0.272-1.351 c0-0.584 0.09-1.036 0.272-1.352c0.182-0.318 0.498-0.477 0.949-0.477c0.45 0 0.8 0.2 0.9 0.5 c0.181 0.3 0.3 0.8 0.3 1.352C9.666 32 9.6 32.5 9.4 32.802z M6.152 21.384V19.31h2.095v2.121h-2.09 C6.157 21.4 6.2 21.4 6.2 21.384z M14.326 21.384c0 0.017-0.004 0.031-0.005 0.047h-2.089v-2.121h2.095V21.384z M12.231 22.523h1.862c-0.338 0.795-1.025 1.397-1.862 1.646V22.523z M11.687 18.218L11.687 18.218l-0.547 0.001v3.212h-1.8V16.13 h2.069c1.318 0 2.4 0.9 2.8 2.088L11.687 18.218L11.687 18.218z M8.247 18.218H6.288c0.281-0.94 1.019-1.676 1.959-1.955 V18.218z M8.247 22.523v1.646c-0.838-0.249-1.524-0.851-1.863-1.646H8.247z M9.338 22.523h1.8v1.779h-1.8V22.523z M11.225 29.6 c0.45 0 0.8 0.2 0.9 0.477c0.181 0.3 0.3 0.8 0.3 1.352c0 0.585-0.091 1.035-0.273 1.4 c-0.181 0.315-0.498 0.472-0.948 0.472c-0.451 0-0.767-0.156-0.949-0.472c-0.182-0.315-0.273-0.766-0.273-1.351 c0-0.584 0.091-1.036 0.273-1.352C10.458 29.8 10.8 29.6 11.2 29.623z M5.665 29.623c0.45 0 0.8 0.2 0.9 0.5 c0.181 0.3 0.3 0.8 0.3 1.352c0 0.585-0.09 1.035-0.272 1.351c-0.182 0.315-0.498 0.472-0.948 0.5 c-0.451 0-0.767-0.156-0.949-0.472c-0.181-0.315-0.272-0.766-0.272-1.351c0-0.584 0.09-1.036 0.272-1.352 C4.897 29.8 5.2 29.6 5.7 29.623z M4.716 36.291h0.637l1.154 2.026v-2.026h0.565v2.906H6.466l-1.184-2.062v2.062H4.716 V36.291z M12.784 31.451c0-0.584 0.091-1.036 0.273-1.352c0.181-0.318 0.497-0.477 0.948-0.477c0.45 0 0.8 0.2 0.9 0.5 c0.181 0.3 0.3 0.8 0.3 1.352c0 0.585-0.091 1.035-0.273 1.351c-0.181 0.315-0.498 0.472-0.948 0.5 c-0.451 0-0.766-0.156-0.948-0.472C12.875 32.5 12.8 32 12.8 31.451z M47.988 22.072c-0.824 0-1.595-0.203-2.292-0.537 c-0.85 0.54-1.849 0.863-2.925 0.863c-3.024 0-5.485-2.46-5.485-5.485c0-3.022 2.46-5.483 5.485-5.483 c0.936 0 1.8 0.3 2.6 0.674c0.781-0.447 1.674-0.725 2.639-0.725c2.947 0 5.3 2.4 5.3 5.3 C53.334 19.7 50.9 22.1 48 22.072z"/><path d="M27.907 30.196c-0.207 0-0.344 0.104-0.41 0.308c-0.067 0.205-0.101 0.521-0.101 0.947c0 0.4 0 0.7 0.1 0.9 c0.066 0.2 0.2 0.3 0.4 0.323c0.206 0 0.342-0.107 0.406-0.323c0.064-0.216 0.096-0.527 0.096-0.935 c0-0.426-0.032-0.742-0.096-0.947C28.249 30.3 28.1 30.2 27.9 30.196z"/><path d="M25.127 32.708c0.206 0 0.342-0.107 0.407-0.323c0.063-0.216 0.096-0.527 0.096-0.935c0-0.426-0.032-0.742-0.096-0.947 c-0.065-0.205-0.201-0.308-0.407-0.308s-0.344 0.104-0.41 0.308c-0.067 0.205-0.1 0.521-0.1 0.947c0 0.4 0 0.7 0.1 0.9 C24.783 32.6 24.9 32.7 25.1 32.708z"/><path d="M8.532 38.245l-0.128 0.023c-0.119 0.021-0.206 0.047-0.258 0.077c-0.088 0.051-0.132 0.13-0.132 0.2 c0 0.1 0 0.2 0.1 0.209c0.055 0 0.1 0.1 0.2 0.064c0.123 0 0.236-0.035 0.34-0.106 c0.104-0.07 0.157-0.2 0.161-0.389v-0.209c-0.035 0.021-0.072 0.04-0.109 0.054C8.646 38.2 8.6 38.2 8.5 38.245z"/><path d="M11.225 32.708c0.206 0 0.342-0.107 0.406-0.323c0.063-0.216 0.096-0.527 0.096-0.935c0-0.426-0.032-0.742-0.096-0.947 c-0.064-0.205-0.2-0.308-0.406-0.308s-0.344 0.104-0.411 0.308c-0.067 0.205-0.1 0.521-0.1 0.947c0 0.4 0 0.7 0.1 0.9 C10.882 32.6 11 32.7 11.2 32.708z"/><path d="M27.871 37.455c-0.144 0-0.256 0.04-0.335 0.121c-0.08 0.084-0.129 0.193-0.15 0.333h0.968 c-0.011-0.149-0.061-0.263-0.15-0.339C28.115 37.5 28 37.5 27.9 37.455z"/><path d="M43.698 16.585h-0.521h-0.521c0.006-0.237 0.034-0.469 0.07-0.697h0.521h0.521h2.931c-0.054-0.287-0.139-0.563-0.243-0.83 h-2.436h-0.543h-0.543c0.082-0.248 0.179-0.486 0.294-0.716h0.589h0.591h1.685c-0.183-0.299-0.388-0.58-0.63-0.83h-0.309h-0.741 h-0.67c0.198-0.261 0.414-0.501 0.655-0.721c-0.506-0.2-1.054-0.319-1.627-0.319c-2.45 0-4.443 1.993-4.443 4.4 c0 2.5 2 4.4 4.4 4.442c0.689 0 1.336-0.172 1.918-0.454c-0.187-0.149-0.375-0.299-0.543-0.472h0.782h0.052 c0.129-0.102 0.229-0.235 0.347-0.348c0.161-0.157 0.338-0.301 0.478-0.481h-0.997h-0.675h-0.638 c-0.132-0.205-0.245-0.419-0.349-0.641h0.589h0.593h1.888c0.142-0.263 0.254-0.539 0.345-0.829h-2.621h-0.545h-0.542 c-0.063-0.233-0.109-0.471-0.143-0.716h0.521h0.521h2.969c0.029-0.215 0.064-0.427 0.064-0.65c0-0.062-0.016-0.118-0.018-0.179 h-3.069V16.585z"/><path d="M59.383 33.349l-1.021-0.59l-1.041-0.6l-1.042-0.603l-0.218-0.126l-1.918-3.323h-3.838l-3.322-1.918l-3.323 1.918h-3.836 l-1.918 3.323l-3.324 1.917v3.836l-1.917 3.324l0.688 1.192l0.603 1.042l0.601 1.042l0.027 0.045v3.837l3.323 1.917l1.918 3.3 h3.837l3.322 1.918l3.324-1.918h3.836l1.918-3.323l3.323-1.917v-3.837l1.918-3.323l-1.918-3.322L59.383 33.349L59.383 33.349z M39.485 34.222c0.727-0.727 1.605-1.091 2.633-1.091c1.026 0 1.9 0.4 2.6 1.091c0.728 0.7 1.1 1.6 1.1 2.6 s-0.362 1.905-1.087 2.633c-0.723 0.726-1.604 1.09-2.638 1.09c-1.027 0-1.904-0.361-2.633-1.09 c-0.726-0.728-1.09-1.605-1.09-2.633S38.759 34.9 39.5 34.222z M43.689 47.957h-1.551l2.274-4.173l0.567-1.042l0.568-1.042 l4.709-8.64h1.515l-4.688 8.64l-0.565 1.042l-0.565 1.042L43.689 47.957z M54.481 46.774c-0.728 0.729-1.604 1.091-2.632 1.1 c-1.028 0-1.906-0.362-2.633-1.091c-0.728-0.726-1.091-1.604-1.091-2.632c0-0.124 0.022-0.238 0.033-0.356 c0.032-0.367 0.099-0.719 0.229-1.042c0.151-0.377 0.382-0.721 0.664-1.041c0.058-0.065 0.102-0.135 0.165-0.198 c0.727-0.724 1.605-1.086 2.633-1.086s1.904 0.4 2.6 1.091c0.056 0.1 0.1 0.1 0.1 0.2 c0.26 0.3 0.5 0.6 0.6 0.934c0.142 0.3 0.2 0.6 0.3 0.999c0.023 0.2 0 0.3 0 0.5 C55.572 45.2 55.2 46 54.5 46.774z"/><path d="M42.118 38.445c0.441 0 0.816-0.154 1.127-0.465c0.31-0.311 0.465-0.686 0.465-1.126c0-0.441-0.155-0.815-0.465-1.126 c-0.311-0.311-0.686-0.465-1.127-0.465c-0.439 0-0.815 0.154-1.125 0.465c-0.312 0.311-0.466 0.685-0.466 1.1 c0 0.4 0.2 0.8 0.5 1.126C41.303 38.3 41.7 38.4 42.1 38.445z"/><path d="M52.975 43.016c-0.122-0.122-0.261-0.2-0.403-0.273c-0.22-0.115-0.454-0.192-0.722-0.192 c-0.269 0-0.504 0.077-0.724 0.192c-0.142 0.073-0.281 0.151-0.403 0.273c-0.22 0.22-0.333 0.483-0.397 0.8 c-0.026 0.118-0.067 0.229-0.067 0.357c0 0.4 0.2 0.8 0.5 1.126c0.311 0.3 0.7 0.5 1.1 0.5 c0.44 0 0.815-0.155 1.125-0.466c0.312-0.31 0.466-0.686 0.466-1.126c0-0.129-0.041-0.239-0.067-0.357 C53.309 43.5 53.2 43.2 53 43.016z"/></g></g><g></g><g></g><g></g><g></g><g></g><g></g><g></g><g></g><g></g><g></g><g></g><g></g><g></g><g></g><g></g></svg>