<?xml version="1.0" encoding="UTF-8"?>
<!DOCTYPE svg PUBLIC "-//W3C//DTD SVG 1.1//EN" "http://www.w3.org/Graphics/SVG/1.1/DTD/svg11.dtd">
<!-- Creator: CorelDRAW X6 -->
<svg xmlns="http://www.w3.org/2000/svg" xml:space="preserve" width="210mm" height="297mm" version="1.1" style="shape-rendering:geometricPrecision; text-rendering:geometricPrecision; image-rendering:optimizeQuality; fill-rule:evenodd; clip-rule:evenodd"
viewBox="0 0 21000 29700"
 xmlns:xlink="http://www.w3.org/1999/xlink">
 <defs>
  <style type="text/css">
   <![CDATA[
    .fil0 {fill:#FFCC01}
   ]]>
  </style>
 </defs>
 <g id="Layer_x0020_1">
  <metadata id="CorelCorpID_0Corel-Layer"/>
  <g id="_143247904">
   <path class="fil0" d="M960 13148c86,0 173,-29 245,-88l1747 -1427 0 8887c0,214 177,392 392,392 214,0 388,-174 388,-389l0 -9526 6413 -5241 7097 5291 0 9472c0,215 177,392 391,392 215,0 389,-174 389,-388l0 -8896 1936 1444c70,51 148,73 230,77 118,0 235,-54 311,-157 128,-172 93,-415 -79,-544l-2462 -1835c-50,-80 -129,-139 -221,-165l-7374 -5497c-7,-5 -15,-9 -22,-13 -13,-8 -25,-16 -38,-23 -10,-5 -21,-9 -32,-13 -13,-5 -25,-10 -38,-14 -12,-3 -24,-5 -35,-7 -14,-2 -26,-4 -39,-5 -12,-1 -23,0 -35,0 -13,0 -27,0 -40,2 -11,1 -21,4 -32,7 -14,3 -27,5 -41,10 -11,3 -21,8 -31,13 -13,5 -26,10 -38,15 -11,6 -21,14 -32,21 -8,6 -17,10 -25,17l-2870 2348 0 -846c0,-215 -174,-388 -389,-388l-2070 0c-215,0 -389,173 -389,388l0 3174 -3453 2822c-167,136 -191,381 -55,547 76,92 190,144 301,143l0 0zm3984 -6297l1293 0 0 1092 -1293 1057 0 -2149z"/>
   <path class="fil0" d="M7339 22518c0,259 207,466 466,465l730 0 0 585c0,776 629,1405 1405,1404l1 0c774,0 1404,-630 1404,-1404l0 -659c73,45 162,74 251,74l1029 0c124,0 241,-49 329,-137 26,-26 47,-55 66,-85 82,133 229,222 391,222l752 0c1,0 0,0 0,0 256,0 464,-209 464,-465l0 -3972c0,-257 -208,-465 -465,-465l-753 0c-127,0 -241,51 -324,133l0 -768c0,-16 -1,-31 -3,-47 12,-147 -48,-293 -162,-390l-1155 -975c804,-392 1280,-1013 1280,-1702l0 -4939c0,-143 -115,-259 -259,-259l-5653 0c-144,0 -259,117 -259,259l0 4939c0,754 569,1434 1515,1811 31,15 67,15 96,19l48 0 0 1920 -730 0c-255,0 -464,208 -464,465l0 684c0,74 22,141 52,207 -32,64 -50,134 -50,206l0 685c0,74 22,141 52,206 -31,62 -50,131 -50,207l0 685c0,74 22,141 51,206 -31,62 -50,131 -50,205l0 685 -5 0 0 -5zm6769 -3919l0 3865 -646 0 0 -3865 646 0zm-3285 4969c0,488 -397,885 -885,885l-1 259 0 -259c-488,0 -885,-397 -885,-885l0 -586 701 0c256,0 465,-208 465,-464l0 -685c0,-35 -4,-68 -11,-101 -3,-11 -7,-21 -11,-32 -6,-21 -12,-41 -22,-61 -1,-4 -2,-8 -4,-11 2,-4 3,-9 4,-12 10,-21 17,-43 24,-64 3,-10 6,-20 8,-30 7,-32 12,-65 12,-100l0 -685c0,-35 -5,-68 -12,-101 -2,-10 -6,-20 -9,-30 -6,-21 -13,-43 -23,-63 -2,-3 -2,-7 -4,-11 2,-4 3,-8 5,-12 9,-21 16,-43 23,-64 3,-11 7,-20 9,-30 7,-33 11,-66 11,-100l0 -685c0,-35 -5,-68 -12,-101 -2,-10 -6,-20 -9,-30 -7,-22 -14,-43 -23,-63 -2,-4 -2,-8 -4,-11 2,-4 2,-7 4,-11 9,-20 16,-42 23,-64 3,-10 7,-19 9,-30 7,-32 12,-66 12,-101l0 -684c0,-38 -6,-75 -15,-111 -2,-11 -6,-20 -9,-30 -8,-28 -20,-54 -33,-79 -3,-6 -4,-12 -8,-17 6,-3 11,-8 17,-11 31,-15 61,-33 89,-56l565 -478 -1 5804zm1737 -6183c-1,20 0,37 8,61l0 5019 -921 0 -1 -4977c0,-76 -34,-149 -92,-198l-319 -270c-24,-20 -51,-35 -79,-44 -10,-4 -22,-4 -32,-6 -18,-4 -36,-9 -54,-9 0,0 0,0 -1,0 -21,0 -43,6 -64,11 -7,2 -15,2 -23,8 -28,10 -55,25 -79,45l-935 790 -373 -441 1427 -1205c30,7 59,7 89,0 2,-1 4,-1 6,-1l1443 1216 0 1zm-5168 -7733l5135 0 0 3463 -5135 0 0 -3463zm0 4680l0 -699 5135 0 0 699c0,515 -438,1015 -1146,1311l-298 0c-11,0 -21,0 -32,2 -17,-2 -33,0 -50,0 -11,0 -21,-1 -32,0 -23,1 -46,6 -69,12 -8,1 -16,2 -25,7 -23,7 -45,16 -67,27 -7,3 -15,5 -22,9 -28,15 -55,32 -80,54l-1490 1256c-195,166 -219,460 -54,654l352 418 -462 0 0 -2180c0,-143 -116,-259 -259,-259l-256 0c-708,-299 -1145,-794 -1145,-1311l0 0zm466 4267l1842 0 0 578 -921 0 -921 0 0 -578 0 0zm0 1096l921 0 921 0 0 578 -919 0 -923 0 0 -578zm0 1096l921 0 921 0 0 577 -921 0 -921 0 0 -577zm0 1096l935 0 907 0 0 577 -1842 0 0 -577z"/>
  </g>
  <g id="_143237216">
  </g>
  <g id="_143241088">
  </g>
  <g id="_143237952">
  </g>
  <g id="_143241408">
  </g>
  <g id="_143241248">
  </g>
  <g id="_143238176">
  </g>
  <g id="_143239712">
  </g>
  <g id="_143238976">
  </g>
  <g id="_143240608">
  </g>
  <g id="_143241152">
  </g>
  <g id="_143238400">
  </g>
  <g id="_143241280">
  </g>
  <g id="_143238880">
  </g>
  <g id="_143238592">
  </g>
  <g id="_143239552">
  </g>
 </g>
</svg>
