<?xml version="1.0" encoding="UTF-8"?>
<!DOCTYPE svg PUBLIC "-//W3C//DTD SVG 1.1//EN" "http://www.w3.org/Graphics/SVG/1.1/DTD/svg11.dtd">
<!-- Creator: CorelDRAW X6 -->
<svg xmlns="http://www.w3.org/2000/svg" xml:space="preserve" width="210mm" height="220.133mm" version="1.1" style="shape-rendering:geometricPrecision; text-rendering:geometricPrecision; image-rendering:optimizeQuality; fill-rule:evenodd; clip-rule:evenodd"
viewBox="0 0 21000 22013"
 xmlns:xlink="http://www.w3.org/1999/xlink">
 <defs>
  <style type="text/css">
   <![CDATA[
    .fil0 {fill:#FFCC01}
   ]]>
  </style>
 </defs>
 <g id="Layer_x0020_1">
  <metadata id="CorelCorpID_0Corel-Layer"/>
  <g id="_771276928">
   <path class="fil0" d="M960 9304c86,0 173,-29 245,-87l1747 -1428 0 8888c0,214 177,391 392,391 214,0 388,-174 388,-388l0 -9526 6413 -5241 7097 5291 0 9472c0,214 177,392 391,392 215,0 389,-174 389,-389l0 -8896 1936 1444c70,52 148,74 230,77 118,0 235,-54 311,-156 128,-172 93,-416 -79,-544l-2462 -1836c-50,-79 -129,-138 -221,-164l-7374 -5497c-7,-6 -15,-9 -22,-14 -13,-8 -25,-16 -38,-22 -10,-6 -21,-9 -32,-14 -13,-5 -25,-9 -38,-13 -12,-3 -24,-5 -35,-7 -14,-2 -26,-5 -39,-5 -12,-1 -23,-1 -35,-1 -13,1 -27,1 -40,2 -11,2 -21,4 -32,8 -14,3 -27,5 -41,10 -11,3 -21,8 -31,13 -13,5 -26,10 -38,14 -11,6 -21,14 -32,22 -8,5 -17,10 -25,16l-2870 2349 0 -846c0,-215 -174,-389 -389,-389l-2070 0c-215,0 -389,174 -389,389l0 3173 -3453 2823c-167,136 -191,380 -55,547 76,92 190,143 301,142l0 0zm3984 -6296l1293 0 0 1092 -1293 1057 0 -2149z"/>
   <path class="fil0" d="M7339 18675c0,259 207,466 466,464l730 0 0 586c0,776 629,1404 1405,1403l1 0c774,0 1404,-629 1404,-1403l0 -659c73,45 162,74 251,73l1029 0c124,0 241,-48 329,-136 26,-26 47,-55 66,-85 82,133 229,221 391,221l752 0c1,0 0,0 0,0 256,0 464,-208 464,-464l0 -3973c0,-256 -208,-464 -465,-464l-753 0c-127,0 -241,51 -324,133l0 -768c0,-16 -1,-31 -3,-47 12,-147 -48,-293 -162,-391l-1155 -974c804,-393 1280,-1014 1280,-1702l0 -4939c0,-143 -115,-259 -259,-259l-5653 0c-144,0 -259,116 -259,259l0 4939c0,754 569,1434 1515,1811 31,15 67,15 96,18l48 0 0 1921 -730 0c-255,0 -464,208 -464,464l0 685c0,74 22,141 52,207 -32,64 -50,133 -50,206l0 685c0,74 22,140 52,206 -31,62 -50,131 -50,207l0 685c0,74 22,140 51,205 -31,62 -50,131 -50,206l0 684 -5 0 0 -4zm6769 -3919l0 3865 -646 0 0 -3865 646 0zm-3285 4968c0,489 -397,886 -885,886l-1 259 0 -259c-488,0 -885,-397 -885,-886l0 -585 701 0c256,0 465,-208 465,-464l0 -685c0,-35 -4,-69 -11,-101 -3,-11 -7,-22 -11,-32 -6,-21 -12,-42 -22,-61 -1,-4 -2,-8 -4,-12 2,-4 3,-8 4,-11 10,-21 17,-43 24,-65 3,-10 6,-19 8,-29 7,-32 12,-66 12,-100l0 -685c0,-35 -5,-69 -12,-101 -2,-11 -6,-20 -9,-30 -6,-22 -13,-43 -23,-63 -2,-4 -2,-8 -4,-11 2,-4 3,-9 5,-13 9,-20 16,-42 23,-64 3,-10 7,-20 9,-30 7,-32 11,-65 11,-99l0 -685c0,-35 -5,-69 -12,-101 -2,-11 -6,-20 -9,-30 -7,-22 -14,-43 -23,-63 -2,-4 -2,-8 -4,-12 2,-3 2,-7 4,-10 9,-20 16,-42 23,-64 3,-10 7,-20 9,-30 7,-33 12,-66 12,-101l0 -684c0,-39 -6,-75 -15,-111 -2,-11 -6,-21 -9,-31 -8,-27 -20,-53 -33,-79 -3,-5 -4,-11 -8,-17 6,-2 11,-7 17,-10 31,-15 61,-33 89,-57l565 -477 -1 5803zm1737 -6182c-1,20 0,36 8,61l0 5018 -921 1 -1 -4977c0,-77 -34,-149 -92,-199l-319 -269c-24,-20 -51,-35 -79,-45 -10,-3 -22,-3 -32,-5 -18,-4 -36,-9 -54,-9 0,0 0,0 -1,0 -21,0 -43,6 -64,11 -7,2 -15,1 -23,7 -28,10 -55,26 -79,46l-935 790 -373 -442 1427 -1204c30,7 59,7 89,0 2,-1 4,-1 6,-1l1443 1216 0 1zm-5168 -7733l5135 0 0 3462 -5135 0 0 -3462zm0 4680l0 -700 5135 0 0 700c0,515 -438,1014 -1146,1310l-298 0c-11,0 -21,1 -32,2 -17,-1 -33,0 -50,0 -11,0 -21,0 -32,0 -23,2 -46,7 -69,12 -8,2 -16,3 -25,8 -23,6 -45,16 -67,26 -7,4 -15,6 -22,9 -28,16 -55,33 -80,54l-1490 1257c-195,166 -219,459 -54,654l352 417 -462 0 0 -2179c0,-143 -116,-259 -259,-259l-256 0c-708,-299 -1145,-794 -1145,-1311l0 0zm466 4267l1842 0 0 578 -921 0 -921 0 0 -578 0 0zm0 1096l921 0 921 0 0 577 -919 0 -923 0 0 -577zm0 1096l921 0 921 0 0 577 -921 0 -921 0 0 -577zm0 1095l935 0 907 0 0 578 -1842 0 0 -578z"/>
  </g>
  <g id="_771276768">
  </g>
  <g id="_773275920">
  </g>
  <g id="_773275760">
  </g>
  <g id="_773275600">
  </g>
  <g id="_773275440">
  </g>
  <g id="_773275280">
  </g>
  <g id="_773275120">
  </g>
  <g id="_770161376">
  </g>
  <g id="_770161216">
  </g>
  <g id="_770161056">
  </g>
  <g id="_770160896">
  </g>
  <g id="_770160736">
  </g>
  <g id="_770160576">
  </g>
  <g id="_774533408">
  </g>
  <g id="_774533248">
  </g>
 </g>
</svg>
