<svg xmlns="http://www.w3.org/2000/svg" xmlns:xlink="http://www.w3.org/1999/xlink" version="1.1" id="Capa_1" x="0px" y="0px" width="95.485px" height="95.485px" viewBox="0 0 95.485 95.485" xml:space="preserve" class="style0"><style>.style0{enable-background:	new 0 0 95.485 95.485;fill:#FFCC01}</style><g><path d="M21.945 84.757L10.251 73.063L39.235 44.08l11.693 11.692L21.945 84.757z M0.596 91.882l2.685 2.687l16.375-7.525 L7.962 75.353L0.596 91.882z M0 95.006l2.29 0.004L0 92.717V95.006z M95.253 36.549c-0.158-0.38-0.363-1.042-0.739-1.697 c-0.366-0.659-0.821-1.598-1.479-2.368c-0.644-0.795-1.431-1.625-2.365-2.471c-0.934-0.803-1.995-1.492-3.186-2.19 c-1.185-0.701-2.45-1.156-3.812-1.636c-1.358-0.438-2.744-0.684-4.188-0.883c-1.41-0.133-2.857-0.159-4.292-0.075 c-1.402 0.147-2.826 0.327-4.161 0.698c-1.341 0.354-2.642 0.795-3.84 1.384c-2.43 1.1-4.51 2.661-6.159 4.2 c-0.814 0.823-1.533 1.63-2.122 2.433c-0.39 0.505-0.705 1.005-0.999 1.482c0.144-0.778 0.195-1.581 0.13-2.414 c0.507-0.565 1.026-1.107 1.574-1.641c-0.205-0.873-0.411-1.744-0.568-2.663c-0.287-1.641-0.465-3.3-0.567-4.854 c-0.021-0.78-0.027-1.535-0.049-2.249c0.041-0.715 0.072-1.389 0.104-2.012c0.082-0.616 0.167-1.181 0.232-1.679 c0.055-0.505 0.209-0.926 0.28-1.274c0.185-0.695 0.28-1.099 0.28-1.099s-0.071 0.404-0.194 1.1 c-0.048 0.357-0.168 0.777-0.175 1.278c-0.034 0.505-0.068 1.062-0.109 1.679c0.021 0.6 0 1.3 0.1 2 c0.072 0.7 0.1 1.4 0.2 2.198c0.22 1.5 0.5 3.1 0.9 4.702c0.171 0.7 0.4 1.3 0.6 1.9 c2.361-2.084 5.023-3.83 7.707-5.15c0.113-0.896 0.219-1.798 0.232-2.691c0.011-1.097 0.059-2.169-0.062-3.25 c-0.144-2.13-0.51-4.19-1.102-6.163c-0.247-0.96-0.657-1.966-0.996-2.896c-0.339-0.924-0.791-1.873-1.181-2.768 c-0.369-0.879-0.787-1.752-1.205-2.579c-0.41-0.866-0.779-1.619-1.074-2.243c-0.273-0.644-0.637-1.241-0.801-1.626 c-0.223-0.414-0.342-0.629-0.342-0.629s-0.247 0.055-0.657 0.208C60.771 0.8 60.1 1 59.5 1.4 c-0.657 0.366-1.595 0.821-2.368 1.477c-0.794 0.642-1.629 1.433-2.471 2.365c-0.801 0.936-1.492 1.993-2.19 3.2 c-0.698 1.188-1.157 2.448-1.636 3.815c-0.435 1.357-0.685 2.739-0.883 4.184c-0.131 1.42-0.158 2.868-0.075 4.3 c0.15 1.4 0.3 2.8 0.7 4.163c0.355 1.3 0.8 2.6 1.4 3.838c1.021 2.2 2.4 4.2 3.9 5.8 c-0.294 2.753-2.04 5.116-4.195 6.839c-0.28 0.147-0.551 0.301-0.821 0.46l-4.645-4.647l-5.069 5.085L52.77 53.938l5.086-5.083 l-5.407-5.403c0.164-0.117 0.321-0.231 0.479-0.361c2.348-1.164 5.112-2.029 7.152-2.547c0.26 0.1 0.5 0.3 0.8 0.4 c0.862 0.4 1.8 0.8 2.8 1.119c1 0.4 2 0.7 3.1 0.946c1.074 0.3 2.2 0.5 3.3 0.7 c1.092 0.1 2.2 0.3 3.3 0.308c1.096 0 2.2 0.1 3.244-0.06c2.129-0.147 4.188-0.515 6.167-1.111 c0.958-0.244 1.964-0.651 2.896-0.99c0.927-0.337 1.875-0.789 2.765-1.179c0.883-0.381 1.759-0.789 2.58-1.201 c0.866-0.421 1.622-0.785 2.245-1.083c0.644-0.267 1.239-0.631 1.622-0.803c0.418-0.221 0.637-0.337 0.637-0.337 S95.403 37 95.3 36.549z M79.24 34.533c-0.366-0.049-0.791-0.167-1.283-0.178c-0.5-0.033-1.058-0.067-1.677-0.106 c-0.616 0.021-1.276 0.034-1.979 0.056c-0.694 0.07-1.434 0.144-2.196 0.217c-1.526 0.224-3.128 0.522-4.702 0.9 c-3.166 0.803-6.235 1.93-8.494 2.873c-0.637 0.263-1.19 0.512-1.677 0.732c0.014 0 0 0 0 0 c-0.308 0.096-0.63 0.204-0.948 0.306c0.496-0.765 0.89-1.584 1.185-2.443c0.26-0.084 0.503-0.171 0.79-0.265 c2.382-0.782 5.603-1.68 8.884-2.253c1.644-0.288 3.296-0.464 4.853-0.568c0.787-0.017 1.533-0.029 2.256-0.046 c0.712 0 1.4 0.1 2 0.106c0.616 0.1 1.2 0.2 1.7 0.238c0.507 0 0.9 0.2 1.3 0.3 c0.69 0.2 1.1 0.3 1.1 0.28S79.941 34.7 79.2 34.533z"/></g><g></g><g></g><g></g><g></g><g></g><g></g><g></g><g></g><g></g><g></g><g></g><g></g><g></g><g></g><g></g></svg>