<svg xmlns="http://www.w3.org/2000/svg" xmlns:xlink="http://www.w3.org/1999/xlink" version="1.1" id="Capa_1" x="0px" y="0px" width="787.545px" height="787.545px" viewBox="0 0 787.545 787.545" xml:space="preserve" class="style0"><style>.style0{enable-background:	new 0 0 787.545 787.545;fill:#FFCC01}</style><g><g id="Shape_387_1_"><g><path d="M581.992 139.667c0.185-2.804 0.592-5.554 0.592-8.397C582.584 58.8 524.3 0 452.4 0 c-63.463 0-116.253 45.801-127.809 106.356c-20.703-9.134-43.458-14.49-67.518-14.49c-93.484 0-169.267 76.428-169.267 170.6 c0 81.2 56.4 148.9 131.8 166.057c-0.987 5.738-1.645 11.633-1.645 17.701c0 58 46.6 105 104.2 105 c24.73 0 47.301-8.857 65.109-23.414v233.416H283.086c-7.186 0-13.017 5.869-13.017 13.135c0 7.2 5.8 13.1 13 13.1 h234.39c7.186 0 13.017-5.896 13.017-13.135c0-7.252-5.831-13.135-13.017-13.135H413.304V518.646 c12.319 4 25.4 6.4 39.1 6.357c43.577 0 81.863-21.77 105.462-54.908c80.468-13.229 141.944-83.391 141.944-168.215 C699.772 225.8 650.2 161.6 582 139.667z"/></g></g></g><g></g><g></g><g></g><g></g><g></g><g></g><g></g><g></g><g></g><g></g><g></g><g></g><g></g><g></g><g></g></svg>