<?xml version="1.0" encoding="UTF-8"?>
<!DOCTYPE svg PUBLIC "-//W3C//DTD SVG 1.1//EN" "http://www.w3.org/Graphics/SVG/1.1/DTD/svg11.dtd">
<!-- Creator: CorelDRAW X6 -->
<svg xmlns="http://www.w3.org/2000/svg" xml:space="preserve" width="10.16mm" height="10.16mm" version="1.1" style="shape-rendering:geometricPrecision; text-rendering:geometricPrecision; image-rendering:optimizeQuality; fill-rule:evenodd; clip-rule:evenodd"
viewBox="0 0 1016 1016"
 xmlns:xlink="http://www.w3.org/1999/xlink"
 xmlns:dc="http://purl.org/dc/elements/1.1/"
 xmlns:cc="http://creativecommons.org/ns#"
 xmlns:rdf="http://www.w3.org/1999/02/22-rdf-syntax-ns#"
 xmlns:svg="http://www.w3.org/2000/svg"
 xmlns:sodipodi="http://sodipodi.sourceforge.net/DTD/sodipodi-0.dtd"
 xmlns:inkscape="http://www.inkscape.org/namespaces/inkscape"
 inkscape:version="0.48.4 r9939">
 <defs>
  <style type="text/css">
   <![CDATA[
    .fil0 {fill:#FFCC01}
   ]]>
  </style>
 </defs>
 <g id="Layer_x0020_1">
  <metadata id="CorelCorpID_0Corel-Layer"/>
  <script xlink:href="" id="script3301"/>
  <script xlink:href="" id="script3299"/>
  <g id="g3174">
   <path id="path3176" class="fil0" d="M479 914l0 -328 -60 0c-6,0 -12,-6 -12,-13l0 -99c0,-9 6,-13 12,-13l60 0 0 -53c0,-27 0,-78 27,-110 26,-32 62,-55 123,-55 93,0 134,13 134,13 6,2 10,8 10,15l-19 101c-2,9 -8,13 -17,11 0,0 -27,-9 -55,-9 -15,0 -40,5 -40,24l0 63 104 0c6,0 12,7 12,15l-8 97c0,7 -7,13 -13,13l-95 0 0 328c0,7 -7,13 -13,13l-138 0c-6,0 -12,-6 -12,-13zm137 -12l0 -329c0,-8 5,-14 13,-14l95 0 7 -72 -102 0c-8,0 -13,-5 -13,-13l0 -76c0,-19 9,-32 22,-41 12,-6 29,-8 44,-8 15,0 32,2 42,4l7 0 12 -74 -4 0c-19,-4 -53,-8 -110,-8 -53,0 -83,17 -104,44 -19,23 -19,64 -19,93l0 66c0,8 -6,13 -15,13l-59 0 0 72 59 0c9,0 15,6 15,14l0 329 110 0z" inkscape:connector-curvature="0"/>
   <path id="path3178" class="fil0" d="M85 853l0 -690c0,-43 34,-79 78,-79l691 0c42,0 78,36 78,79l0 690c0,44 -36,78 -78,78l-691 0c-44,0 -78,-34 -78,-78zm819 0l0 -690c0,-30 -23,-51 -50,-51l-691 0c-30,0 -53,21 -53,51l0 690c0,30 23,53 53,53l691 0c27,0 50,-23 50,-53z" inkscape:connector-curvature="0"/>
  </g>
 </g>
</svg>
