<?xml version="1.0" encoding="UTF-8"?>
<!DOCTYPE svg PUBLIC "-//W3C//DTD SVG 1.1//EN" "http://www.w3.org/Graphics/SVG/1.1/DTD/svg11.dtd">
<!-- Creator: CorelDRAW X6 -->
<svg xmlns="http://www.w3.org/2000/svg" xml:space="preserve" width="86.6986mm" height="76.2mm" version="1.1" style="shape-rendering:geometricPrecision; text-rendering:geometricPrecision; image-rendering:optimizeQuality; fill-rule:evenodd; clip-rule:evenodd"
viewBox="0 0 8670 7620"
 xmlns:xlink="http://www.w3.org/1999/xlink">
 <defs>
  <style type="text/css">
   <![CDATA[
    .fil0 {fill:#FFCC01}
   ]]>
  </style>
 </defs>
 <g id="Layer_x0020_1">
  <metadata id="CorelCorpID_0Corel-Layer"/>
  <path class="fil0" d="M7928 3790c-240,-101 -703,-197 -1111,-281 -235,-48 -527,-108 -588,-136 -245,-175 -493,-333 -738,-470 -245,-138 -515,-272 -832,-319 -220,-33 -446,-55 -669,-65 -670,-32 -1225,-6 -1748,82 -56,9 -113,20 -167,30 -50,9 -101,18 -151,28 -17,3 -33,9 -48,18l-1013 639c-497,75 -601,931 -613,1037 -27,223 -40,461 117,679 109,154 263,222 468,214l255 0c73,369 399,650 789,649 390,0 716,-278 789,-648l3344 2c73,369 398,646 788,646 157,0 309,-44 439,-130 184,-120 308,-306 350,-515l648 0c125,0 153,-137 167,-202 56,-272 78,-1022 -476,-1258l0 0zm-3309 -944c276,41 519,162 743,287 168,94 337,200 508,313l-2144 0 0 -672c82,1 166,5 252,9 214,10 430,31 641,62l0 1zm-2624 69c43,-8 86,-16 129,-24 53,-10 108,-20 162,-29 364,-61 746,-91 1175,-92l0 676 -2310 0 844 -531 0 0zm-114 2714c-298,0 -540,-242 -540,-539 0,-298 242,-540 540,-540 297,0 539,241 539,540 0,298 -242,540 -541,539l2 0zm5216 -87c-88,57 -190,87 -295,88 -297,0 -540,-242 -540,-540 0,-298 243,-540 540,-540 298,0 540,242 540,540 0,182 -92,351 -245,452l0 0zm1052 -558l-550 0c-52,-394 -389,-699 -797,-699 -408,0 -745,305 -797,698l-3327 -1c-53,-393 -390,-697 -797,-697 -407,0 -744,303 -798,696l-250 0c-2,0 -4,0 -6,0 -118,5 -187,-24 -245,-104 -102,-143 -92,-301 -69,-494 0,-1 0,-2 0,-3 19,-178 90,-491 214,-670l5756 0c78,17 171,35 280,59 377,77 846,173 1061,265 124,52 215,153 274,299 93,237 75,522 50,651l1 0z"/>
  <g id="_142067408">
  </g>
  <g id="_142066928">
  </g>
  <g id="_142065424">
  </g>
  <g id="_142066288">
  </g>
  <g id="_142069040">
  </g>
  <g id="_142071344">
  </g>
  <g id="_142066480">
  </g>
  <g id="_142066672">
  </g>
  <g id="_142071472">
  </g>
  <g id="_142065552">
  </g>
  <g id="_142069360">
  </g>
  <g id="_142066000">
  </g>
  <g id="_142067344">
  </g>
  <g id="_142066960">
  </g>
  <g id="_142067152">
  </g>
 </g>
</svg>
