<?xml version="1.0" encoding="UTF-8"?>
<!DOCTYPE svg PUBLIC "-//W3C//DTD SVG 1.1//EN" "http://www.w3.org/Graphics/SVG/1.1/DTD/svg11.dtd">
<!-- Creator: CorelDRAW X6 -->
<svg xmlns="http://www.w3.org/2000/svg" xml:space="preserve" width="10.16mm" height="10.16mm" version="1.1" style="shape-rendering:geometricPrecision; text-rendering:geometricPrecision; image-rendering:optimizeQuality; fill-rule:evenodd; clip-rule:evenodd"
viewBox="0 0 1016 1016"
 xmlns:xlink="http://www.w3.org/1999/xlink"
 xmlns:dc="http://purl.org/dc/elements/1.1/"
 xmlns:cc="http://creativecommons.org/ns#"
 xmlns:rdf="http://www.w3.org/1999/02/22-rdf-syntax-ns#"
 xmlns:svg="http://www.w3.org/2000/svg"
 xmlns:sodipodi="http://sodipodi.sourceforge.net/DTD/sodipodi-0.dtd"
 xmlns:inkscape="http://www.inkscape.org/namespaces/inkscape"
 inkscape:version="0.48.4 r9939">
 <defs>
  <style type="text/css">
   <![CDATA[
    .fil0 {fill:#FFCC01}
   ]]>
  </style>
 </defs>
 <g id="Layer_x0020_1">
  <metadata id="CorelCorpID_0Corel-Layer"/>
  <script xlink:href="" id="script3301"/>
  <script xlink:href="" id="script3299"/>
  <g id="g3356">
   <path id="path3358" class="fil0" d="M85 853l0 -690c0,-43 34,-79 78,-79l691 0c42,0 78,36 78,79l0 690c0,44 -36,78 -78,78l-691 0c-44,0 -78,-34 -78,-78zm819 0l0 -690c0,-30 -23,-51 -50,-51l-691 0c-30,0 -53,21 -53,51l0 690c0,30 23,53 53,53l691 0c27,0 50,-23 50,-53z" inkscape:connector-curvature="0"/>
   <path id="path3360" class="fil0" d="M216 696l0 -377c0,-57 47,-101 104,-101l377 0c57,0 102,44 102,101l0 377c0,57 -45,104 -102,104l-377 0c-57,0 -104,-47 -104,-104zm557 0l0 -377c0,-42 -34,-76 -76,-76l-377 0c-2,0 -4,0 -7,0l9 0 0 159 -25 0 0 -155c-32,9 -53,38 -53,72l0 83 529 0 0 27 -529 0 0 267c0,43 33,77 76,77l377 0c42,0 76,-34 76,-77zm-398 -108c0,-74 59,-133 133,-133 72,0 132,59 132,133 0,72 -60,132 -132,132 -74,0 -133,-60 -133,-132zm239 0c0,-59 -48,-106 -106,-106 -59,0 -106,47 -106,106 0,57 47,106 106,106 58,0 106,-49 106,-106zm-186 0c0,-44 36,-80 80,-80 43,0 79,36 79,80 0,43 -36,79 -79,79 -44,0 -80,-36 -80,-79zm133 0c0,-29 -23,-53 -53,-53 -29,0 -53,24 -53,53 0,28 24,51 53,51 30,0 53,-23 53,-51zm-212 -186l0 -159 26 0 0 159 -26 0zm53 0l0 -159 26 0 0 159 -26 0zm212 -78c0,-30 24,-53 53,-53 30,0 53,23 53,53 0,27 -23,52 -53,52 -29,0 -53,-25 -53,-52zm79 0c0,-15 -11,-28 -26,-28 -15,0 -27,13 -27,28 0,14 12,25 27,25 15,0 26,-11 26,-25z" inkscape:connector-curvature="0"/>
  </g>
 </g>
</svg>
