<?xml version="1.0" encoding="UTF-8"?>
<!DOCTYPE svg PUBLIC "-//W3C//DTD SVG 1.1//EN" "http://www.w3.org/Graphics/SVG/1.1/DTD/svg11.dtd">
<!-- Creator: CorelDRAW X6 -->
<svg xmlns="http://www.w3.org/2000/svg" xml:space="preserve" width="210mm" height="297mm" version="1.1" style="shape-rendering:geometricPrecision; text-rendering:geometricPrecision; image-rendering:optimizeQuality; fill-rule:evenodd; clip-rule:evenodd"
viewBox="0 0 21000 29700"
 xmlns:xlink="http://www.w3.org/1999/xlink">
 <defs>
  <style type="text/css">
   <![CDATA[
    .fil0 {fill:#FFCC01}
   ]]>
  </style>
 </defs>
 <g id="Layer_x0020_1">
  <metadata id="CorelCorpID_0Corel-Layer"/>
  <g id="_771129760">
   <g>
    <path class="fil0" d="M18025 10563c-300,0 -544,243 -544,544l0 9925c0,1049 -853,1903 -1902,1903l-11919 0c-1049,0 -1902,-854 -1902,-1903l0 -11919c0,-1049 853,-1902 1902,-1902l11919 0c300,0 544,-244 544,-544 0,-300 -244,-543 -544,-543l-11919 0c-1648,1 -2989,1340 -2989,2989l0 11919c0,1648 1339,2988 2988,2990l11918 0c1649,0 2990,-1341 2990,-2990l0 -9925c1,-300 -241,-544 -540,-544l-2 0z"/>
    <path class="fil0" d="M20037 5712c-213,-213 -557,-213 -769,0l-10922 10921 -2730 -2729c-212,-213 -556,-213 -768,0 -213,212 -213,557 0,768l3114 3114c107,106 244,161 382,160 140,0 279,-53 385,-160 0,0 0,0 0,-1l11308 -11305c212,-213 214,-558 2,-768l-2 0z"/>
   </g>
  </g>
  <g id="_771129600">
  </g>
  <g id="_771129440">
  </g>
  <g id="_771129280">
  </g>
  <g id="_771129120">
  </g>
  <g id="_771128960">
  </g>
  <g id="_70631744">
  </g>
  <g id="_70631584">
  </g>
  <g id="_70631424">
  </g>
  <g id="_70631264">
  </g>
  <g id="_70631104">
  </g>
  <g id="_70630944">
  </g>
  <g id="_769707632">
  </g>
  <g id="_769707472">
  </g>
  <g id="_769707312">
  </g>
  <g id="_769707152">
  </g>
 </g>
</svg>
