<svg xmlns="http://www.w3.org/2000/svg" xmlns:xlink="http://www.w3.org/1999/xlink" version="1.1" id="Capa_1" x="0px" y="0px" width="64px" height="64px" viewBox="0 0 64 64" enable-background="new 0 0 64 64" xml:space="preserve"><style>.style0{fill:	#FFCC01;}</style><g><path d="M56.188 30.451c-0.765-0.435-1.631-0.663-2.51-0.663c-0.246 0-0.488 0.02-0.729 0.1 c-0.102-0.535-0.348-1.061-0.709-1.528c-2.422-3.126-4.815-6.299-7.408-9.288c-0.305-0.352-0.639-0.584-0.977-0.723 c-0.969-0.7-2.151-1.117-3.438-1.117c-2.225 0-4.156 1.237-5.154 3.059c-1.513 1.112-3.023 2.225-4.537 3.3 c-0.39 0.074-0.78 0.148-1.168 0.223c-1.127 0.214-2.253 0.428-3.38 0.643c-1.639 0.312-3.277 0.623-4.917 0.9 c-1.473 0.281-2.034 1.411-1.926 2.55l-5.89 1.624l-5.813-14.74l-1.999 0.79l12.177 30.877l2-0.789l-5.968-15.133l5.781-1.593 c0.503 1.1 1.6 1.9 3.1 1.595c3.278-0.623 6.556-1.247 9.833-1.871c0.662-0.126 1.355-0.57 2.022-1.089v8.914 c0 0.3 0 0.6 0.1 0.853c0 5.8 0 11.6 0 17.403c0 3.5 5.4 3.5 5.4 0c0-4.135 0-8.271 0-12.405 c0.144 0 0.3 0 0.4 0.021c0.418 0 0.824-0.046 1.218-0.129c1.409 4.3 2.7 8.6 3.7 13 c0.771 3.4 5.9 1.9 5.182-1.429c-1.199-5.256-2.791-10.395-4.523-15.492c0.191-0.58 0.301-1.198 0.301-1.844v-7.187 c0.718 0.9 1.4 1.9 2.1 2.782c0.17 0.2 0.4 0.4 0.6 0.502c-0.604 1.164-0.758 2.488-0.42 3.8 c0.356 1.3 1.2 2.4 2.4 3.12c0.114 0.1 0.2 0.1 0.4 0.098c0.552 0 0.75-0.562 0.964-1.158 c0.227-0.646 0.444-1.179 0.784-1.179c0.037 0 0.1 0 0.1 0.015c0.604 0.1 1 0.8 1.3 1.4 c0.311 0.6 0.6 1.1 1.1 1.053c0.129 0 0.257-0.037 0.379-0.107c0.664-0.391 1.376-0.934 2.239-1.709 c0.854-0.766 1.236-1.775 1.111-2.922C59.213 33.3 57.9 31.4 56.2 30.451z M30.813 23.6 C31.065 23.4 31.1 23.5 30.8 23.566L30.813 23.566z M57.691 37.253c-0.775 0.696-1.414 1.19-1.998 1.5
 c-0.094-0.119-0.227-0.359-0.327-0.546c-0.378-0.688-0.896-1.631-1.896-1.856c-0.105-0.021-0.214-0.037-0.316-0.037 c-1 0-1.377 1.066-1.627 1.772c-0.055 0.153-0.127 0.357-0.19 0.494c-0.903-0.565-1.55-1.44-1.83-2.485 c-0.295-1.103-0.144-2.264 0.425-3.264c0.604 0.1 1.234-0.076 1.756-0.365c-0.029 0.082-0.054 0.168-0.054 0.3 c0 0.4 0.4 0.8 0.8 0.783s0.779-0.351 0.779-0.783c0-0.431-0.35-0.779-0.779-0.779c-0.031 0-0.059 0.013-0.088 0 c0.355-0.39 0.564-0.817 0.64-1.26c0.234-0.04 0.47-0.067 0.712-0.067c0.723 0 1.4 0.2 2.1 0.5 c1.243 0.7 2.6 2.3 2.8 3.864C58.604 36 58.3 36.7 57.7 37.253z" class="style0"/><circle cx="50.9" cy="35" r="0.8" class="style0"/><path d="M55.167 31.99c-0.431 0-0.778 0.349-0.778 0.779c0 0.4 0.3 0.8 0.8 0.8 c0.433 0 0.783-0.351 0.783-0.783C55.95 32.3 55.6 32 55.2 31.99z" class="style0"/><circle cx="56.9" cy="34.8" r="0.8" class="style0"/><path d="M10.891 29.289L3.98 55.902l15.499-0.01l-5.677-17.33L10.891 29.289z M6.067 54.279l4.971-19.143l1.23 3.9 l4.989 15.236L6.067 54.279z" class="style0"/><path d="M40.42 16.631c2.242 0 4.061-1.818 4.061-4.06h-8.119C36.359 14.8 38.2 16.6 40.4 16.631z" class="style0"/><path d="M38.016 11.963l4.938-0.011c1.553 0 2.813-0.788 2.813-1.991c0-1.112-1.076-2.027-2.463-2.162 c-0.563-0.703-1.563-1.172-2.709-1.172c-1.24 0-2.312 0.549-2.839 1.348c-1.303 0.101-2.321 0.953-2.321 2 C35.436 11.1 36.6 12 38 11.963z" class="style0"/></g></svg>