<?xml version="1.0" encoding="UTF-8"?>
<!DOCTYPE svg PUBLIC "-//W3C//DTD SVG 1.1//EN" "http://www.w3.org/Graphics/SVG/1.1/DTD/svg11.dtd">
<!-- Creator: CorelDRAW X6 -->
<svg xmlns="http://www.w3.org/2000/svg" xml:space="preserve" width="210mm" height="297mm" version="1.1" style="shape-rendering:geometricPrecision; text-rendering:geometricPrecision; image-rendering:optimizeQuality; fill-rule:evenodd; clip-rule:evenodd"
viewBox="0 0 21000 29700"
 xmlns:xlink="http://www.w3.org/1999/xlink">
 <defs>
  <style type="text/css">
   <![CDATA[
    .fil0 {fill:#FFCC01}
   ]]>
  </style>
 </defs>
 <g id="Layer_x0020_1">
  <metadata id="CorelCorpID_0Corel-Layer"/>
  <g id="_770941088">
   <path class="fil0" d="M20467 12840l-1144 1144 -3187 -3187 1145 -1144c360,-360 902,-405 1208,-99l2078 2079c305,306 260,845 -101,1207l1 0zm-4862 -1512l3187 3187 -7600 7601c-35,35 -131,132 -267,166 -16,8 -32,14 -48,19l-3966 1264c-111,36 -223,13 -295,-60 -73,-72 -95,-184 -61,-295l1265 -3966c5,-16 11,-32 19,-47 34,-136 131,-233 166,-268l1428 -1428 -4824 0c-194,0 -352,-158 -352,-352 0,-195 158,-353 352,-353l5529 0 5467 -5468zm-5393 10542l-1962 -1961 -527 1652 837 836 1652 -527zm5271 -9275c-113,-113 -296,-113 -409,0l-5925 5924c-112,113 -112,295 0,409 113,113 295,113 408,0l5924 -5925c114,-114 116,-296 3,-408l-1 0zm-358 11279c0,212 -173,384 -384,384l-6991 0 -632 202c-127,40 -257,60 -388,60 -277,0 -536,-95 -747,-262l-3629 0c-212,0 -385,-172 -385,-384l0 -16132c0,-212 173,-384 385,-384l1440 0 0 608c0,213 171,384 384,384 212,0 384,-172 384,-384l0 -608 2209 0 0 608c0,213 170,384 384,384 212,0 384,-172 384,-384l0 -608 1920 0 0 608c0,213 171,384 385,384 212,0 384,-172 384,-384l0 -608 2112 0 0 608c0,213 171,384 385,384 212,0 384,-172 384,-384l0 -608 1632 0c212,0 384,170 384,384l0 2660 403 -402 750 -750 0 -1508c0,-847 -689,-1537 -1537,-1537l-1632 0 0 -928c0,-212 -172,-384 -384,-384 -212,0 -384,172 -384,384l0 928 -2113 0 0 -928c0,-212 -172,-384 -385,-384 -212,0 -384,172 -384,384l0 928 -1920 0 0 -928c0,-212 -172,-384 -384,-384 -213,0 -385,172 -385,384l0 928 -2208 0 0 -928c0,-212 -172,-384 -384,-384 -213,0 -384,172 -384,384l0 928 -1441 0c-847,0 -1536,690 -1536,1537l0 16132c0,846 690,1536 1536,1536l12387 0c848,0 1537,-689 1537,-1536l0 -5593 -1153 1153 0 4440 1 0zm-3001 -13067l-7515 0c-194,0 -352,158 -352,353 0,194 159,353 353,352l7515 0c195,0 352,-158 352,-352 0,-195 -159,-354 -353,-353l0 0zm0 2840l-7515 0c-194,0 -352,158 -352,353 0,194 159,353 353,353l7515 0c195,0 352,-158 352,-353 0,-195 -159,-354 -353,-353l0 0z"/>
  </g>
  <g id="_770940928">
  </g>
  <g id="_770940768">
  </g>
  <g id="_770940608">
  </g>
  <g id="_770940448">
  </g>
  <g id="_770940288">
  </g>
  <g id="_140682224">
  </g>
  <g id="_140682064">
  </g>
  <g id="_140681904">
  </g>
  <g id="_140681744">
  </g>
  <g id="_140681584">
  </g>
  <g id="_140681424">
  </g>
  <g id="_140680720">
  </g>
  <g id="_140680560">
  </g>
  <g id="_140680400">
  </g>
  <g id="_140680240">
  </g>
 </g>
</svg>
