<?xml version="1.0" encoding="UTF-8"?>
<!DOCTYPE svg PUBLIC "-//W3C//DTD SVG 1.1//EN" "http://www.w3.org/Graphics/SVG/1.1/DTD/svg11.dtd">
<!-- Creator: CorelDRAW X6 -->
<svg xmlns="http://www.w3.org/2000/svg" xml:space="preserve" width="296.333mm" height="297mm" version="1.1" style="shape-rendering:geometricPrecision; text-rendering:geometricPrecision; image-rendering:optimizeQuality; fill-rule:evenodd; clip-rule:evenodd"
viewBox="0 0 29633 29700"
 xmlns:xlink="http://www.w3.org/1999/xlink">
 <defs>
  <style type="text/css">
   <![CDATA[
    .fil0 {fill:#FFCC01}
   ]]>
  </style>
 </defs>
 <g id="Layer_x0020_1">
  <metadata id="CorelCorpID_0Corel-Layer"/>
  <g id="_769706864">
   <g>
    <g>
     <path class="fil0" d="M26450 2259l-23299 0c-1286,3 -2329,1043 -2329,2329l0 15186c0,1285 1040,2327 2327,2327l7507 0 -1425 3143c-147,324 -120,699 77,1001 193,300 524,482 880,481l9226 0c1,0 0,0 0,0 579,0 1049,-471 1049,-1050 0,-173 -42,-338 -118,-483l-1403 -3092 7508 0c1284,0 2329,-1043 2329,-2327l0 -15186c0,-1286 -1042,-2326 -2327,-2329l-2 0zm232 17515c0,126 -104,231 -232,231l-23299 0c-128,0 -233,-105 -233,-231l0 -15186c0,-128 105,-232 233,-232l23299 0c128,0 230,105 230,232l2 15189 0 -3z"/>
     <path class="fil0" d="M18030 7254c-75,-74 -206,-64 -293,24l-1137 1136c-87,88 -97,219 -25,293l1616 1614c37,35 90,56 140,48 52,-4 106,-29 150,-73l1138 -1136c86,-88 98,-219 23,-291l-1612 -1615z"/>
     <path class="fil0" d="M11049 14323c-47,-48 -121,-62 -195,-37 -73,25 -133,86 -158,159l-777 2300c-25,72 -10,147 35,193 36,35 84,56 140,48 17,-1 35,-4 54,-10l2301 -777c73,-25 134,-86 159,-159 24,-73 11,-147 -37,-195l-1522 -1522z"/>
     <path class="fil0" d="M16862 13250c102,-47 175,-137 200,-246 24,-109 -3,-223 -75,-307 -134,-160 -275,-322 -419,-486l1264 -1264c40,-41 68,-96 71,-150 6,-55 -12,-106 -48,-141l-1614 -1614c-75,-74 -204,-63 -291,24l-1233 1232c-826,-783 -1657,-1482 -2387,-2007 -516,-372 -1457,-993 -1983,-1002 -95,-1 -188,37 -256,104 -69,68 -106,160 -105,259 3,356 314,1000 881,1815 540,776 1279,1663 2125,2556l-1609 1607c-87,87 -97,218 -23,291l1614 1616c37,34 91,55 140,48 53,-5 108,-30 150,-73l1639 -1639c144,126 287,252 427,368 65,57 147,85 231,85 19,0 38,-2 57,-5 102,-16 193,-77 247,-166 95,-157 220,-313 370,-463 192,-192 403,-339 627,-442l0 0z"/>
     <path class="fil0" d="M17756 13548c-415,0 -811,178 -1146,511 -401,402 -577,824 -508,1217 70,392 379,741 853,962 408,189 776,245 1105,300 345,57 671,105 958,301 60,41 132,63 202,61 50,0 99,-10 146,-30 112,-51 191,-156 208,-278 124,-926 -54,-1757 -501,-2341 -342,-444 -821,-703 -1317,-703l0 0z"/>
    </g>
   </g>
  </g>
  <g id="_142333104">
  </g>
  <g id="_142332944">
  </g>
  <g id="_142332784">
  </g>
  <g id="_142332624">
  </g>
  <g id="_142332464">
  </g>
  <g id="_142332304">
  </g>
  <g id="_768384736">
  </g>
  <g id="_768384576">
  </g>
  <g id="_768384416">
  </g>
  <g id="_768384256">
  </g>
  <g id="_768384096">
  </g>
  <g id="_768383936">
  </g>
  <g id="_768224816">
  </g>
  <g id="_768224656">
  </g>
  <g id="_768224496">
  </g>
 </g>
</svg>
