<svg xmlns="http://www.w3.org/2000/svg" xmlns:xlink="http://www.w3.org/1999/xlink" version="1.1" id="Capa_1" x="0px" y="0px" width="473.578px" height="473.578px" viewBox="0 0 473.578 473.578" xml:space="preserve" class="style0"><style>.style0{enable-background:	new 0 0 473.578 473.578;fill:#FFCC01}</style><g><g><path d="M139.551 106.758c11.802 0 21.404-9.604 21.404-21.41c0-11.805-9.602-21.41-21.404-21.41 c-11.809 0-21.416 9.604-21.416 21.41C118.135 97.2 127.7 106.8 139.6 106.758z M139.551 75.9 c5.185 0 9.4 4.2 9.4 9.41s-4.219 9.41-9.404 9.41c-5.192 0-9.416-4.221-9.416-9.41S134.359 75.9 139.6 75.939z"/><path d="M139.545 165.085c-12.998 0-23.179 7.745-23.179 17.631v122.89c0 9.9 10.2 17.6 23.2 17.6 c12.999 0 23.181-7.744 23.181-17.631v-122.89C162.726 172.8 152.5 165.1 139.5 165.085z M150.726 305.6 c0 2.242-4.459 5.631-11.181 5.631c-6.72 0-11.179-3.389-11.179-5.631v-122.89c0-2.242 4.458-5.631 11.179-5.631 c6.722 0 11.2 3.4 11.2 5.631V305.605z"/><path d="M369.644 0H103.932C83.452 0 66.8 16.7 66.8 37.142V402.9c0 20.5 16.7 37.1 37.1 37.141h4.572 c-1.729 3.209-2.713 6.877-2.713 10.77c0 12.6 10.2 22.8 22.8 22.768c12.551 0 22.761-10.213 22.761-22.768 c0-3.893-0.983-7.561-2.713-10.77H324.97c-1.729 3.209-2.713 6.877-2.713 10.77c0 12.6 10.2 22.8 22.8 22.8 c12.549 0 22.758-10.213 22.758-22.768c0-3.893-0.982-7.561-2.711-10.77h4.576c20.48 0 37.143-16.66 37.143-37.141V37.142 C406.786 16.7 390.1 0 369.6 0z M103.932 12h265.711c13.863 0 25.1 11.3 25.1 25.142v99.791H78.79V37.142 C78.79 23.3 90.1 12 103.9 12z M139.318 450.811c0 5.938-4.828 10.768-10.761 10.768c-5.937 0-10.766-4.83-10.766-10.768 s4.83-10.77 10.766-10.77C134.49 440 139.3 444.9 139.3 450.811z M355.782 450.811c0 5.938-4.826 10.768-10.76 10.8 c-5.936 0-10.766-4.83-10.766-10.768s4.83-10.77 10.766-10.77C350.956 440 355.8 444.9 355.8 450.811z M369.644 428 H103.932c-13.863 0-25.142-11.277-25.142-25.141V148.932h315.998v253.966C394.786 416.8 383.5 428 369.6 428.041z"/></g></g><g></g><g></g><g></g><g></g><g></g><g></g><g></g><g></g><g></g><g></g><g></g><g></g><g></g><g></g><g></g></svg>