<?xml version="1.0" encoding="UTF-8"?>
<!DOCTYPE svg PUBLIC "-//W3C//DTD SVG 1.1//EN" "http://www.w3.org/Graphics/SVG/1.1/DTD/svg11.dtd">
<!-- Creator: CorelDRAW X6 -->
<svg xmlns="http://www.w3.org/2000/svg" xml:space="preserve" width="210mm" height="297mm" version="1.1" style="shape-rendering:geometricPrecision; text-rendering:geometricPrecision; image-rendering:optimizeQuality; fill-rule:evenodd; clip-rule:evenodd"
viewBox="0 0 21000 29700"
 xmlns:xlink="http://www.w3.org/1999/xlink">
 <defs>
  <style type="text/css">
   <![CDATA[
    .fil0 {fill:#FFCC01}
   ]]>
  </style>
 </defs>
 <g id="Layer_x0020_1">
  <metadata id="CorelCorpID_0Corel-Layer"/>
  <g id="_774304576">
   <g>
    <path class="fil0" d="M20178 7162c-249,-256 -548,-387 -914,-387l-17252 0c-365,0 -675,131 -925,385 -244,251 -376,562 -376,916l0 13767c0,354 126,668 376,925 245,250 561,376 924,377l17252 0c366,0 670,-127 914,-377 252,-257 378,-571 378,-925l0 -13767c0,-354 -133,-665 -376,-914l-1 0zm-806 14681c0,75 -32,108 -108,108l-17252 0c-75,0 -107,-33 -107,-108l0 -13767c0,-75 32,-108 107,-108l17252 0c75,0 107,33 107,108l0 13767 1 0z"/>
    <path class="fil0" d="M14919 13787c570,0 1033,-473 1033,-1043 0,-549 -463,-1011 -1033,-1011 -549,0 -1011,462 -1011,1011 0,568 463,1042 1011,1043l0 0z"/>
    <polygon class="fil0" points="11875,17369 7520,11519 3571,19596 3045,20790 18136,20790 14057,15475 "/>
   </g>
  </g>
  <g id="_774309728">
  </g>
  <g id="_774304704">
  </g>
  <g id="_774307136">
  </g>
  <g id="_774306464">
  </g>
  <g id="_774310208">
  </g>
  <g id="_774328640">
  </g>
  <g id="_774309120">
  </g>
  <g id="_774316960">
  </g>
  <g id="_774327680">
  </g>
  <g id="_774323648">
  </g>
  <g id="_774309248">
  </g>
  <g id="_774308896">
  </g>
  <g id="_774306176">
  </g>
  <g id="_774308000">
  </g>
  <g id="_774300416">
  </g>
 </g>
</svg>
