<svg xmlns="http://www.w3.org/2000/svg" xmlns:xlink="http://www.w3.org/1999/xlink" version="1.1" id="Capa_1" x="0px" y="0px" viewBox="0 0 422.686 422.686" xml:space="preserve" class="style0"><style>.style0{enable-background:	new 0 0 422.686 422.686;}.style1{fill:	#010002;fill:#FFCC01}</style><g><g><path d="M211.343 0C94.812 0 0 94.8 0 211.343c0 116.5 94.8 211.3 211.3 211.3 c116.539 0 211.343-94.804 211.343-211.343C422.686 94.8 327.9 0 211.3 0z M211.343 406.4 c-107.565 0-195.086-87.52-195.086-195.086s87.52-195.086 195.086-195.086s195.086 87.5 195.1 195.1 S318.908 406.4 211.3 406.429z" class="style1"/><polygon points="214.9,62.3 198.6,62.3 198.6,219.5 301.6,219.5 301.6,203.2 214.9,203.2" class="style1"/></g></g><g></g><g></g><g></g><g></g><g></g><g></g><g></g><g></g><g></g><g></g><g></g><g></g><g></g><g></g><g></g></svg>