<?xml version="1.0" encoding="UTF-8"?>
<!DOCTYPE svg PUBLIC "-//W3C//DTD SVG 1.1//EN" "http://www.w3.org/Graphics/SVG/1.1/DTD/svg11.dtd">
<!-- Creator: CorelDRAW X6 -->
<svg xmlns="http://www.w3.org/2000/svg" xml:space="preserve" width="10.16mm" height="10.16mm" version="1.1" style="shape-rendering:geometricPrecision; text-rendering:geometricPrecision; image-rendering:optimizeQuality; fill-rule:evenodd; clip-rule:evenodd"
viewBox="0 0 1016 1016"
 xmlns:xlink="http://www.w3.org/1999/xlink"
 xmlns:dc="http://purl.org/dc/elements/1.1/"
 xmlns:cc="http://creativecommons.org/ns#"
 xmlns:rdf="http://www.w3.org/1999/02/22-rdf-syntax-ns#"
 xmlns:svg="http://www.w3.org/2000/svg"
 xmlns:sodipodi="http://sodipodi.sourceforge.net/DTD/sodipodi-0.dtd"
 xmlns:inkscape="http://www.inkscape.org/namespaces/inkscape"
 inkscape:version="0.48.4 r9939">
 <defs>
  <style type="text/css">
   <![CDATA[
    .fil0 {fill:#FFCC01}
   ]]>
  </style>
 </defs>
 <g id="Layer_x0020_1">
  <metadata id="CorelCorpID_0Corel-Layer"/>
  <script xlink:href="" id="script3301"/>
  <script xlink:href="" id="script3299"/>
  <g id="g3163">
   <polygon id="path3165" class="fil0" points="349,455 349,349 297,190 297,190 318,190 362,324 364,324 405,190 428,190 375,349 375,455 " inkscape:connector-curvature="0"/>
   <path id="path3167" class="fil0" d="M443 442l0 0c-9,-8 -15,-21 -15,-36l0 -91c0,-15 6,-25 15,-34 10,-6 23,-10 40,-10 15,0 27,4 38,12 9,9 13,19 13,32l0 91c0,15 -4,28 -13,36 -11,9 -23,13 -40,13l0 0c-15,0 -28,-4 -38,-13zm59 -23c4,-7 6,-15 6,-26l0 -63c0,-11 -2,-19 -8,-26 -4,-4 -11,-8 -17,-8 -9,0 -15,4 -21,8 -5,7 -7,15 -7,24l0 65c0,11 2,19 7,26l0 0c6,6 12,10 19,10l0 0c8,0 15,-4 21,-10z" inkscape:connector-curvature="0"/>
   <path id="path3169" class="fil0" d="M570 444c-7,-4 -9,-12 -9,-23l0 -150 26 0 0 144c0,4 2,8 4,10 2,2 4,2 8,2 5,0 30,-4 36,-6 5,-4 28,-11 32,-15l0 -135 26 0 0 180 -26 0 0 -26c-8,9 -38,19 -46,21 -11,5 -19,7 -28,7 -11,0 -19,-2 -23,-9z" inkscape:connector-curvature="0"/>
   <path id="path3171" class="fil0" d="M333 821c-45,0 -81,-29 -85,-72l0 -6c-4,-30 -4,-59 -4,-89 0,-30 0,-59 4,-89l0 -8c4,-41 42,-72 85,-72 55,-3 110,-3 167,-3l17 0c57,0 112,0 167,3 45,0 85,36 85,80l2 44c2,15 2,30 2,45 0,15 0,30 -2,44l-2 43c0,46 -40,80 -85,80 -55,4 -110,4 -167,4l-17 0c-57,0 -112,0 -167,-4zm349 -25c36,0 61,-26 61,-55l0 0c3,-30 3,-57 3,-87 0,-30 0,-59 -3,-87l0 -2c0,-28 -25,-53 -61,-53 -53,-2 -108,-4 -165,-4l-17 0c-57,0 -112,2 -167,4 -34,0 -60,25 -60,53l0 2c-2,28 -4,57 -4,87 0,30 2,57 4,87l0 0c0,29 26,55 60,55 55,2 110,2 167,2l17 0c55,0 112,0 165,-2z" inkscape:connector-curvature="0"/>
   <path id="path3173" class="fil0" d="M625 734c-7,-6 -11,-17 -11,-29l0 -60c0,-12 4,-21 11,-29 8,-7 19,-11 30,-11 12,0 23,4 29,11 7,6 9,17 9,29l0 34 0 0 0 0 0 0 -51 0 0 26c0,6 2,10 2,15 2,2 6,4 11,4 4,0 6,-2 8,-4 2,-3 2,-9 2,-15l0 -11 28 0 0 11c0,15 -2,23 -9,32 -8,6 -17,10 -32,10 -10,0 -21,-4 -27,-13zm-206 5c-2,-5 -4,-11 -4,-19l0 -111 28 0 0 102c0,4 0,6 0,6 2,3 4,3 6,3 2,0 4,0 6,-3 5,-2 7,-4 9,-6l0 0 0 -102 27 0 0 134 -27 0 0 -15c-4,4 -9,9 -15,13 -4,2 -11,4 -15,4 -6,0 -10,-2 -15,-6zm136 2c-4,-2 -6,-4 -11,-9l0 11 -27 0 0 -182 27 0 0 59c5,-4 9,-8 11,-11 4,-2 8,-2 13,-2 8,0 14,2 19,9 6,6 8,13 8,25l0 74c0,9 -2,17 -6,22 -4,4 -11,8 -19,8 -4,0 -11,-2 -15,-4zm-201 2l0 -155 -32 0 0 -27 93 0 0 27 -32 0 0 155 -29 0zm209 -23c3,0 5,-5 5,-9l0 0 0 -70c0,-4 -2,-6 -5,-8 -2,-4 -4,-4 -8,-4 -2,0 -2,0 -4,0 -2,2 -5,4 -7,4l0 84c2,3 5,5 7,5 2,2 4,2 6,2 4,0 6,-2 6,-4zm102 -62l0 -13c0,-6 0,-10 -2,-12 -2,-2 -4,-4 -8,-4 -5,0 -9,2 -11,4 0,2 -2,6 -2,12l0 0 0 13 23 0z" inkscape:connector-curvature="0"/>
   <path id="path3175" class="fil0" d="M85 853l0 -690c0,-43 34,-79 78,-79l691 0c42,0 78,36 78,79l0 690c0,44 -36,78 -78,78l-691 0c-44,0 -78,-34 -78,-78zm819 0l0 -690c0,-30 -23,-51 -50,-51l-691 0c-30,0 -53,21 -53,51l0 690c0,30 23,53 53,53l691 0c27,0 50,-23 50,-53z" inkscape:connector-curvature="0"/>
  </g>
 </g>
</svg>
