<?xml version="1.0" encoding="UTF-8"?>
<!DOCTYPE svg PUBLIC "-//W3C//DTD SVG 1.1//EN" "http://www.w3.org/Graphics/SVG/1.1/DTD/svg11.dtd">
<!-- Creator: CorelDRAW X6 -->
<svg xmlns="http://www.w3.org/2000/svg" xml:space="preserve" width="10.16mm" height="10.16mm" version="1.1" style="shape-rendering:geometricPrecision; text-rendering:geometricPrecision; image-rendering:optimizeQuality; fill-rule:evenodd; clip-rule:evenodd"
viewBox="0 0 1016 1016"
 xmlns:xlink="http://www.w3.org/1999/xlink"
 xmlns:dc="http://purl.org/dc/elements/1.1/"
 xmlns:cc="http://creativecommons.org/ns#"
 xmlns:rdf="http://www.w3.org/1999/02/22-rdf-syntax-ns#"
 xmlns:svg="http://www.w3.org/2000/svg"
 xmlns:sodipodi="http://sodipodi.sourceforge.net/DTD/sodipodi-0.dtd"
 xmlns:inkscape="http://www.inkscape.org/namespaces/inkscape"
 inkscape:version="0.48.4 r9939">
 <defs>
  <style type="text/css">
   <![CDATA[
    .fil0 {fill:#FFCC01}
   ]]>
  </style>
 </defs>
 <g id="Layer_x0020_1">
  <metadata id="CorelCorpID_0Corel-Layer"/>
  <script xlink:href="" id="script3301"/>
  <script xlink:href="" id="script3299"/>
  <g id="g3396">
   <path id="path3398" class="fil0" d="M644 701l-53 -66c-2,-4 -4,-6 -6,-6l-3 -3 0 3 -12 52 -2 11c-5,13 -11,23 -26,28l-10 0 -60 0c-110,0 -207,-155 -275,-346l0 -2c-2,-12 -4,-25 2,-36 6,-10 19,-15 32,-15l93 0c6,0 11,5 13,9 21,70 46,112 78,161l0 0c4,8 11,6 15,0l2 -6 0 -109c0,-16 -6,-19 -25,-21 -7,0 -13,-8 -11,-17 9,-27 38,-40 76,-40l36 -2c28,0 55,13 55,51l0 142 3 2c4,0 12,2 21,-11 31,-46 70,-99 74,-129 2,0 2,-2 2,-2 6,-15 25,-25 32,-28 0,0 2,0 6,0l98 0 4 0c4,0 6,0 8,3 4,2 9,6 13,10 4,9 4,17 4,21 0,2 0,2 0,5 -8,57 -74,120 -101,163 -9,10 -9,17 -3,25l94 114c10,15 8,32 -3,45 -6,6 -16,10 -29,13l-11 0 -97 0 2 0c-13,2 -23,-5 -30,-11l-6 -8zm34 -7l99 0c9,0 17,-4 19,-6 0,-2 3,-2 0,-7l-2 -4 -89 -112c-17,-19 -14,-40 -2,-57 28,-40 83,-98 98,-144l2 -7 -2 -6 0 -2 -2 0 -98 0 -2 0c-2,2 -6,4 -8,6l-5 5 -2 10c-13,32 -40,74 -63,110l-13 15 -6 11c-20,17 -49,15 -62,-2 -2,-3 -4,-9 -4,-13l0 -144c0,-17 -6,-23 -28,-23l-36 0c-17,0 -29,4 -36,8l-4 2 2 0c13,6 26,19 26,42l0 111c-5,34 -45,48 -64,23l-2 -4c-30,-45 -53,-83 -74,-142l-7 -17 -82 0c-9,0 -9,2 -9,2 0,2 -2,4 0,11l0 6 13 34c68,178 155,294 237,294l62 0c6,0 8,-10 10,-17l0 -2 11 -53 2 -2c0,-4 4,-11 9,-13 4,-6 10,-8 19,-8 10,2 19,10 27,19l53 68c4,6 9,8 11,8l2 0z" inkscape:connector-curvature="0"/>
   <path id="path3400" class="fil0" d="M85 853l0 -690c0,-43 34,-79 78,-79l691 0c42,0 78,36 78,79l0 690c0,44 -36,78 -78,78l-691 0c-44,0 -78,-34 -78,-78zm819 0l0 -690c0,-30 -23,-51 -50,-51l-691 0c-30,0 -53,21 -53,51l0 690c0,30 23,53 53,53l691 0c27,0 50,-23 50,-53z" inkscape:connector-curvature="0"/>
  </g>
 </g>
</svg>
